<svg version="1.1" id="Layer_1" xmlns="http://www.w3.org/2000/svg" xmlns:xlink="http://www.w3.org/1999/xlink" x="0px" y="0px"
	 width="100%" viewBox="0 0 512 512" enable-background="new 0 0 512 512" xml:space="preserve">
<path fill="#f0f0f0" opacity="1.000000" stroke="none" 
	d="
M512.709229,372.712769 
	C513.000000,418.474854 512.973633,463.949768 513.064575,509.424438 
	C513.070129,512.189697 512.778625,513.099304 509.579254,513.097229 
	C341.172455,512.987122 172.765594,512.984802 4.358830,513.109009 
	C0.981896,513.111511 0.947749,511.958130 0.951607,509.362549 
	C1.018710,464.220886 1.000000,419.079071 1.000000,373.468658 
	C2.725357,370.735962 4.342794,371.473541 5.929329,373.174500 
	C11.810805,379.480164 18.688122,380.081573 26.507067,377.244263 
	C57.676796,365.933441 88.881714,354.718994 120.092461,343.521545 
	C149.734711,332.886871 179.300781,322.039307 209.021896,311.625122 
	C214.598938,309.670959 216.428513,310.860321 216.447662,316.745056 
	C216.550171,348.243073 216.475021,379.741455 216.528244,411.239532 
	C216.534607,415.009186 214.741058,417.469421 212.072830,419.693634 
	C199.787186,429.934814 187.630905,440.337952 175.160843,450.348511 
	C168.379028,455.792664 164.854996,462.180359 165.420029,471.016052 
	C165.844620,477.655884 165.386261,484.345337 165.546570,491.009125 
	C165.848419,503.555542 173.998566,509.867218 186.269135,506.709808 
	C197.078064,503.928528 207.685745,500.402832 218.380371,497.199982 
	C229.234665,493.949280 240.102890,490.744324 250.939728,487.436096 
	C255.239960,486.123322 259.433502,486.324707 263.708923,487.612427 
	C283.811981,493.667419 303.921478,499.701294 324.034668,505.722687 
	C327.405701,506.731903 330.784210,507.587646 334.339142,507.407684 
	C341.865051,507.026764 347.527985,502.242615 348.130951,494.791473 
	C348.950684,484.661346 348.744263,474.475098 348.199890,464.322235 
	C347.920715,459.115021 344.709534,455.397125 340.973511,452.194153 
	C330.601440,443.301941 320.125580,434.530182 309.484314,425.961578 
	C297.533600,416.338715 297.500092,416.380157 297.500183,401.051971 
	C297.500366,374.553406 297.499451,348.054871 297.500824,321.556305 
	C297.500916,320.056396 297.475647,318.555847 297.520844,317.056763 
	C297.707855,310.853851 299.349457,309.674469 305.153442,311.672791 
	C321.382019,317.260437 337.487671,323.194031 353.634155,329.011108 
	C393.922180,343.525696 434.214966,358.027039 474.510193,372.521576 
	C479.369904,374.269653 484.205780,376.081146 489.096680,377.750671 
	C496.116516,380.146942 502.171753,378.949829 507.511261,373.773529 
	C508.816162,372.508545 510.065674,370.223877 512.709229,372.712769 
z"/>
<path fill="#f0f0f0" opacity="1.000000" stroke="none" 
	d="
M1.284370,313.280579 
	C1.000000,210.414322 1.023802,107.828606 0.901637,5.243070 
	C0.897333,1.628889 1.656228,0.896824 5.250499,0.902602 
	C84.521080,1.030042 163.791901,1.000000 243.531342,1.000000 
	C246.625214,3.244553 245.236038,4.682267 242.947052,5.769376 
	C239.024902,7.632100 235.173645,9.598120 231.847855,12.436507 
	C221.449982,21.310547 216.453461,32.572552 216.476089,46.260300 
	C216.543274,86.894241 216.378021,127.529205 216.630890,168.161652 
	C216.670425,174.516068 214.276001,178.135925 209.116257,181.411316 
	C172.709671,204.522018 136.431015,227.834641 100.107430,251.076324 
	C74.022339,267.766907 47.969143,284.507599 21.827877,301.110596 
	C16.078236,304.762299 10.052142,308.074066 5.303422,313.109375 
	C4.131605,314.351898 3.020159,315.100586 1.284370,313.280579 
z"/>
<path fill="#f0f0f0" opacity="1.000000" stroke="none" 
	d="
M269.719238,1.284910 
	C349.603821,1.000000 429.207703,1.035489 508.811249,0.889477 
	C512.575745,0.882572 513.088074,1.859092 513.084534,5.304856 
	C512.980408,107.557388 513.000000,209.810043 513.000000,312.531342 
	C511.914520,314.126068 510.794128,315.273376 509.263397,313.666321 
	C502.135834,306.183472 492.889740,301.667023 484.375061,296.201569 
	C441.052307,268.393219 397.712952,240.609894 354.305145,212.933731 
	C337.307526,202.096313 320.350067,191.193481 303.333069,180.386383 
	C299.083740,177.687729 297.397003,174.360596 297.415466,169.284668 
	C297.564148,128.458466 297.472839,87.631401 297.513062,46.804665 
	C297.531799,27.792868 289.762817,13.765801 271.947083,5.925353 
	C270.235840,5.172260 267.067535,4.850319 269.719238,1.284910 
z"/>
<path fill="#6A6C76" opacity="1.000000" stroke="none" 
	d="
M269.531342,1.000000 
	C269.303986,2.861848 270.821930,2.680645 271.838257,3.055969 
	C290.033936,9.775605 300.328705,26.727322 300.131531,45.727818 
	C299.704529,86.867722 300.079742,128.015503 299.884033,169.158905 
	C299.863129,173.551346 301.224792,176.117371 304.834808,178.389282 
	C334.865173,197.288361 364.849823,216.260986 394.761017,235.348160 
	C410.270752,245.245346 425.563690,255.481552 441.026459,265.453217 
	C462.422455,279.251160 483.841675,293.014618 505.373108,306.599243 
	C508.302765,308.447632 509.982361,311.219574 512.684082,313.215454 
	C513.000000,332.687561 513.000000,352.375122 513.000000,372.531342 
	C509.588135,372.528870 509.950043,376.216553 508.030823,377.530975 
	C502.107361,381.587769 496.173920,383.213867 489.017853,380.606903 
	C454.784973,368.135681 420.459747,355.917999 386.176086,343.585999 
	C358.541412,333.645630 330.899933,323.723328 303.316864,313.641602 
	C300.036560,312.442627 299.995209,313.946655 299.998291,316.271362 
	C300.012421,326.935150 300.000732,337.598969 300.000275,348.262756 
	C299.999451,366.924408 300.741211,385.628174 299.684326,404.229767 
	C299.163483,413.397095 303.593689,418.037903 309.582153,422.890503 
	C321.955414,432.916809 334.388367,442.884399 346.394653,453.337982 
	C349.306671,455.873413 351.215668,459.818420 351.078552,464.398834 
	C350.809479,473.388367 350.158203,482.491089 351.207184,491.364716 
	C352.605286,503.191498 341.239441,513.787842 327.114777,509.471863 
	C309.055756,503.953735 290.967987,498.529633 272.894226,493.059692 
	C268.821594,491.827148 264.796295,490.412933 260.677216,489.365295 
	C254.152985,487.705902 248.446915,491.119324 242.541504,492.830475 
	C223.921829,498.225677 205.361160,503.829315 186.827713,509.515503 
	C175.702515,512.928772 167.548569,507.114319 164.223358,500.608215 
	C163.286987,498.776123 162.954758,496.937561 162.971024,494.898956 
	C163.040176,486.235168 163.667511,477.504730 162.821609,468.923767 
	C161.881851,459.390533 166.941757,453.675964 173.350784,448.335907 
	C184.617798,438.948151 195.583145,429.142151 207.377747,420.467010 
	C213.436417,416.010773 214.149445,410.940094 214.097443,404.371765 
	C213.870529,375.714600 214.002731,347.054596 213.997177,318.395630 
	C213.996078,312.694397 214.021225,312.806519 208.598938,314.743561 
	C188.682037,321.858551 168.702179,328.798279 148.808441,335.976959 
	C110.395561,349.838409 72.029068,363.828369 33.631256,377.731689 
	C29.624275,379.182587 25.576248,380.551941 21.475817,381.705078 
	C15.980052,383.250580 7.615441,380.183136 4.255831,375.404266 
	C3.477926,374.297729 2.829614,373.202057 1.310806,372.773621 
	C1.000000,353.312439 1.000000,333.624878 1.000000,313.468658 
	C5.951437,308.745575 11.037035,304.683533 16.570131,301.178894 
	C43.601784,284.056885 70.654137,266.966553 97.593552,249.700226 
	C125.240273,231.980576 152.745544,214.040390 180.353027,196.259308 
	C190.160690,189.942535 199.993881,183.653763 210.012558,177.683014 
	C213.220551,175.771179 214.069153,173.537689 214.061279,170.045975 
	C213.966232,127.904182 214.194199,85.760750 213.902039,43.620777 
	C213.788895,27.299793 225.889862,9.295136 241.190063,3.850153 
	C242.358200,3.434446 243.780167,3.075647 244.191925,1.341870 
	C252.354233,1.000000 260.708466,1.000000 269.531342,1.000000 
z"/>
<path fill="#f0f0f0" opacity="1.000000" stroke="none" 
	d="
M218.228897,194.289795 
	C233.364914,183.759277 231.997116,187.962524 231.998123,168.832718 
	C232.000305,127.502670 231.996368,86.172623 232.001541,44.842579 
	C232.002930,33.739864 238.892181,23.722004 249.006882,20.072481 
	C258.299591,16.719543 269.907288,19.940163 276.650116,28.291294 
	C280.083191,32.543282 282.060944,37.550644 282.048920,43.325672 
	C281.959381,86.322067 282.395935,129.325012 281.712677,172.310715 
	C281.549805,182.557663 285.604492,188.121536 293.526947,192.979843 
	C309.470245,202.756805 325.174957,212.924240 340.939148,222.991562 
	C369.591858,241.289703 398.219879,259.626556 426.851013,277.958466 
	C448.170380,291.608734 469.421844,305.366730 490.851898,318.840759 
	C494.108246,320.888214 495.162445,323.012299 495.088806,326.723358 
	C494.851837,338.668427 495.000610,350.621124 495.000610,363.193726 
	C481.693939,358.542542 469.004242,354.193604 456.376617,349.671265 
	C440.475891,343.976654 424.639709,338.101898 408.751190,332.372864 
	C371.876495,319.076630 334.987152,305.821045 298.103546,292.549622 
	C296.868408,292.105194 295.657623,291.560211 294.390106,291.244080 
	C286.920715,289.381073 282.028564,293.135803 282.020294,300.914307 
	C281.979828,338.911224 281.992310,376.908234 282.011047,414.905212 
	C282.014099,421.110931 284.820679,426.058594 289.468109,429.913940 
	C302.396820,440.639160 315.414093,451.257568 328.396606,461.917969 
	C331.454987,464.429321 333.435364,467.170624 333.119659,471.629028 
	C332.651154,478.244965 332.998383,484.918640 332.998383,492.172119 
	C319.614380,488.159821 306.761444,484.314514 293.913422,480.452728 
	C283.546906,477.336792 273.131744,474.368774 262.841492,471.017822 
	C255.405701,468.596405 248.973846,471.975433 242.304291,473.918884 
	C222.454117,479.703033 202.653351,485.656708 182.829025,491.529755 
	C182.382919,491.661926 181.885941,491.622314 181.013504,491.696960 
	C181.013504,483.753296 181.066803,475.937653 180.976822,468.123657 
	C180.953720,466.117737 182.224915,465.094910 183.460114,464.055450 
	C192.697083,456.282288 201.978653,448.562103 211.243774,440.822357 
	C216.198425,436.683441 221.240540,432.642914 226.071503,428.364136 
	C230.104294,424.792358 231.982910,420.083893 231.986221,414.716248 
	C232.009537,376.885925 232.015762,339.055603 231.985001,301.225281 
	C231.978027,292.635315 226.893066,288.925842 218.575287,291.841644 
	C197.194687,299.336609 175.912186,307.110992 154.571701,314.720978 
	C118.549126,327.566620 82.468758,340.252106 46.511620,353.278015 
	C37.580074,356.513580 28.729557,359.942993 19.015505,363.102875 
	C19.015505,349.506653 19.021101,336.413483 19.010998,323.320312 
	C19.008862,320.552856 21.469963,320.073029 23.133541,319.000061 
	C43.306046,305.988556 63.522079,293.044525 83.727959,280.084778 
	C110.415474,262.967865 137.103470,245.851715 163.792343,228.736938 
	C180.526917,218.005554 197.258194,207.268967 214.009979,196.564514 
	C215.251831,195.770966 216.647522,195.218124 218.228897,194.289795 
z"/>
</svg>