<svg version="1.1" id="Layer_1" xmlns="http://www.w3.org/2000/svg" xmlns:xlink="http://www.w3.org/1999/xlink" x="0px" y="0px"
	 width="100%" viewBox="0 0 512 512" enable-background="new 0 0 512 512" xml:space="preserve">
<path fill="#4bb299" opacity="1.000000" stroke="none" 
	d="
M303.000000,513.000000 
	C202.024521,513.000000 101.549034,513.000000 1.036777,513.000000 
	C1.036777,342.399506 1.036777,171.798981 1.036777,1.099231 
	C171.558823,1.099231 342.117737,1.099231 512.838318,1.099231 
	C512.838318,171.666550 512.838318,342.333252 512.838318,513.000000 
	C443.132294,513.000000 373.316132,513.000000 303.000000,513.000000 
M393.422119,125.000000 
	C380.060699,125.000000 366.699310,125.000000 352.574738,125.000000 
	C355.111115,97.430161 349.120300,73.705635 332.503174,52.893925 
	C315.953400,32.166660 294.475159,20.101896 268.461029,17.195452 
	C241.545258,14.188272 216.444153,20.617361 195.549606,38.313118 
	C169.274536,60.565693 157.869736,89.554474 161.380814,124.999855 
	C147.195923,124.999855 134.065552,124.250465 121.054626,125.177505 
	C102.080147,126.529465 85.781715,140.676315 81.177116,158.968033 
	C79.129295,167.102951 78.615738,175.696869 78.085693,184.125198 
	C77.122383,199.443069 76.700394,214.794434 75.989967,230.128922 
	C75.372002,243.467896 74.635963,256.801361 74.010078,270.140015 
	C73.306168,285.141510 72.695480,300.147308 71.991547,315.148804 
	C71.365654,328.487427 70.642319,341.821472 70.008408,355.159760 
	C69.311287,369.828247 68.587456,384.496185 68.025032,399.170105 
	C67.568420,411.083130 67.332878,423.004578 67.001259,434.922333 
	C66.987350,435.421936 67.065063,435.934662 66.979790,436.420135 
	C64.142288,452.575104 66.800499,467.268677 77.596855,480.247894 
	C86.288986,490.697540 97.261772,496.840454 110.620689,496.873047 
	C207.607941,497.109375 304.596008,497.009705 401.583801,496.957886 
	C404.818237,496.956146 408.144409,496.706696 411.271820,495.938080 
	C433.165070,490.557373 447.117920,472.363312 447.920746,450.466553 
	C448.118713,445.067535 447.282715,439.634979 447.009949,434.213470 
	C446.313934,420.378265 445.655304,406.541168 445.004547,392.703735 
	C444.322540,378.201172 443.678711,363.696808 442.996674,349.194244 
	C442.345917,335.356842 441.655273,321.521301 441.004517,307.683899 
	C440.322449,293.181335 439.678680,278.676971 438.996643,264.174408 
	C438.345886,250.336990 437.624420,236.502808 437.012360,222.663712 
	C436.297302,206.496201 435.134857,190.325287 435.124268,174.155212 
	C435.108215,149.686234 418.864716,128.974701 393.422119,125.000000 
z"/>
<path fill="#FFFFFF" opacity="1.000000" stroke="none" 
	d="
M393.869843,125.000061 
	C418.864716,128.974701 435.108215,149.686234 435.124268,174.155212 
	C435.134857,190.325287 436.297302,206.496201 437.012360,222.663712 
	C437.624420,236.502808 438.345886,250.336990 438.996643,264.174408 
	C439.678680,278.676971 440.322449,293.181335 441.004517,307.683899 
	C441.655273,321.521301 442.345917,335.356842 442.996674,349.194244 
	C443.678711,363.696808 444.322540,378.201172 445.004547,392.703735 
	C445.655304,406.541168 446.313934,420.378265 447.009949,434.213470 
	C447.282715,439.634979 448.118713,445.067535 447.920746,450.466553 
	C447.117920,472.363312 433.165070,490.557373 411.271820,495.938080 
	C408.144409,496.706696 404.818237,496.956146 401.583801,496.957886 
	C304.596008,497.009705 207.607941,497.109375 110.620689,496.873047 
	C97.261772,496.840454 86.288986,490.697540 77.596855,480.247894 
	C66.800499,467.268677 64.142288,452.575104 66.979790,436.420135 
	C67.065063,435.934662 66.987350,435.421936 67.001259,434.922333 
	C67.332878,423.004578 67.568420,411.083130 68.025032,399.170105 
	C68.587456,384.496185 69.311287,369.828247 70.008408,355.159760 
	C70.642319,341.821472 71.365654,328.487427 71.991547,315.148804 
	C72.695480,300.147308 73.306168,285.141510 74.010078,270.140015 
	C74.635963,256.801361 75.372002,243.467896 75.989967,230.128922 
	C76.700394,214.794434 77.122383,199.443069 78.085693,184.125198 
	C78.615738,175.696869 79.129295,167.102951 81.177116,158.968033 
	C85.781715,140.676315 102.080147,126.529465 121.054626,125.177505 
	C134.065552,124.250465 147.195923,124.999855 161.380814,124.999855 
	C157.869736,89.554474 169.274536,60.565693 195.549606,38.313118 
	C216.444153,20.617361 241.545258,14.188272 268.461029,17.195452 
	C294.475159,20.101896 315.953400,32.166660 332.503174,52.893925 
	C349.120300,73.705635 355.111115,97.430161 352.574738,125.000000 
	C366.699310,125.000000 380.060699,125.000000 393.869843,125.000061 
M228.500000,465.000000 
	C234.165390,465.000000 239.830795,465.000000 245.496185,465.000000 
	C295.486572,465.000000 345.477417,465.111511 395.467041,464.916229 
	C406.977448,464.871277 411.959656,461.416809 414.525085,451.622559 
	C415.711548,447.092865 414.238129,441.872406 414.003693,436.963501 
	C413.326996,422.794952 412.664215,408.625763 412.001434,394.456573 
	C411.330872,380.121063 410.672791,365.785034 409.998383,351.449738 
	C409.339600,337.446991 408.664124,323.445007 408.001434,309.442444 
	C407.330841,295.273621 406.666870,281.104431 406.000153,266.935425 
	C405.333466,252.766403 404.613159,238.599640 404.014404,224.427765 
	C403.289215,207.261932 402.581757,190.094467 402.034546,172.922363 
	C401.744598,163.823578 394.996979,157.000809 385.854797,157.000687 
	C305.703522,156.999512 225.552231,157.000000 145.400955,157.000000 
	C140.401917,157.000000 135.397400,156.848999 130.404938,157.030243 
	C118.584373,157.459396 111.782661,164.043320 111.940277,175.912064 
	C111.990028,179.658646 111.203606,183.408371 111.024521,187.167358 
	C110.301964,202.333542 109.700745,217.505493 108.989853,232.672272 
	C108.372482,245.843781 107.635483,259.009644 107.010086,272.180786 
	C106.305748,287.014557 105.690048,301.852570 104.993263,316.686737 
	C104.358955,330.190704 103.633087,343.690430 103.010635,357.194916 
	C102.303864,372.528534 101.605995,387.863068 101.020172,403.201630 
	C100.584259,414.614746 100.346611,426.035339 99.974358,437.451080 
	C99.943329,438.402863 99.574242,439.347015 99.336319,440.288147 
	C97.166016,448.873108 100.058037,458.390045 106.934502,462.168884 
	C110.299141,464.017883 114.624229,464.862061 118.521561,464.883209 
	C154.846848,465.080536 191.173645,465.000000 228.500000,465.000000 
M247.888687,50.001575 
	C239.842010,53.008488 231.083527,54.846924 223.878754,59.235870 
	C199.836807,73.881531 192.194977,96.838455 193.162888,123.766724 
	C235.917404,123.766724 278.301666,123.766724 321.147400,123.766724 
	C320.750732,116.809273 321.066254,109.978981 319.858246,103.429672 
	C315.926544,82.113152 304.227448,66.224060 285.003906,55.997520 
	C273.612030,49.937267 261.300873,49.471600 247.888687,50.001575 
z"/>
<path fill="#4bb299" opacity="1.000000" stroke="none" 
	d="
M228.000000,465.000000 
	C191.173645,465.000000 154.846848,465.080536 118.521561,464.883209 
	C114.624229,464.862061 110.299141,464.017883 106.934502,462.168884 
	C100.058037,458.390045 97.166016,448.873108 99.336319,440.288147 
	C99.574242,439.347015 99.943329,438.402863 99.974358,437.451080 
	C100.346611,426.035339 100.584259,414.614746 101.020172,403.201630 
	C101.605995,387.863068 102.303864,372.528534 103.010635,357.194916 
	C103.633087,343.690430 104.358955,330.190704 104.993263,316.686737 
	C105.690048,301.852570 106.305748,287.014557 107.010086,272.180786 
	C107.635483,259.009644 108.372482,245.843781 108.989853,232.672272 
	C109.700745,217.505493 110.301964,202.333542 111.024521,187.167358 
	C111.203606,183.408371 111.990028,179.658646 111.940277,175.912064 
	C111.782661,164.043320 118.584373,157.459396 130.404938,157.030243 
	C135.397400,156.848999 140.401917,157.000000 145.400955,157.000000 
	C225.552231,157.000000 305.703522,156.999512 385.854797,157.000687 
	C394.996979,157.000809 401.744598,163.823578 402.034546,172.922363 
	C402.581757,190.094467 403.289215,207.261932 404.014404,224.427765 
	C404.613159,238.599640 405.333466,252.766403 406.000153,266.935425 
	C406.666870,281.104431 407.330841,295.273621 408.001434,309.442444 
	C408.664124,323.445007 409.339600,337.446991 409.998383,351.449738 
	C410.672791,365.785034 411.330872,380.121063 412.001434,394.456573 
	C412.664215,408.625763 413.326996,422.794952 414.003693,436.963501 
	C414.238129,441.872406 415.711548,447.092865 414.525085,451.622559 
	C411.959656,461.416809 406.977448,464.871277 395.467041,464.916229 
	C345.477417,465.111511 295.486572,465.000000 245.496185,465.000000 
	C239.830795,465.000000 234.165390,465.000000 228.000000,465.000000 
M346.043396,229.521637 
	C348.041016,223.281097 350.082092,217.054077 352.026764,210.797073 
	C355.621674,199.230392 345.573029,189.944199 336.266174,189.976089 
	C327.159210,190.007294 321.656525,195.379639 318.936981,206.034561 
	C313.895477,225.786606 301.512238,239.911133 283.460876,248.663330 
	C271.493378,254.465775 258.444458,255.734711 245.324051,252.955292 
	C224.316315,248.505005 209.089005,236.461563 200.055313,216.971298 
	C197.245926,210.910019 195.813568,204.200333 192.902664,198.198868 
	C189.275024,190.719757 180.298508,188.049881 172.296005,191.261261 
	C164.779190,194.277710 160.215515,202.600403 162.693542,210.147873 
	C165.779999,219.548477 168.674301,229.174438 173.189270,237.908157 
	C181.231064,253.464172 193.623688,265.360046 208.866074,273.918488 
	C229.648697,285.587738 251.944153,289.218140 275.458344,285.000092 
	C293.710724,281.725952 309.586884,273.696899 323.285522,261.232727 
	C332.943176,252.445465 340.216400,241.938492 346.043396,229.521637 
z"/>
<path fill="#4bb299" opacity="1.000000" stroke="none" 
	d="
M248.354889,50.000839 
	C261.300873,49.471600 273.612030,49.937267 285.003906,55.997520 
	C304.227448,66.224060 315.926544,82.113152 319.858246,103.429672 
	C321.066254,109.978981 320.750732,116.809273 321.147400,123.766724 
	C278.301666,123.766724 235.917404,123.766724 193.162888,123.766724 
	C192.194977,96.838455 199.836807,73.881531 223.878754,59.235870 
	C231.083527,54.846924 239.842010,53.008488 248.354889,50.000839 
z"/>
<path fill="#FFFFFF" opacity="1.000000" stroke="none" 
	d="
M346.007141,229.912430 
	C340.216400,241.938492 332.943176,252.445465 323.285522,261.232727 
	C309.586884,273.696899 293.710724,281.725952 275.458344,285.000092 
	C251.944153,289.218140 229.648697,285.587738 208.866074,273.918488 
	C193.623688,265.360046 181.231064,253.464172 173.189270,237.908157 
	C168.674301,229.174438 165.779999,219.548477 162.693542,210.147873 
	C160.215515,202.600403 164.779190,194.277710 172.296005,191.261261 
	C180.298508,188.049881 189.275024,190.719757 192.902664,198.198868 
	C195.813568,204.200333 197.245926,210.910019 200.055313,216.971298 
	C209.089005,236.461563 224.316315,248.505005 245.324051,252.955292 
	C258.444458,255.734711 271.493378,254.465775 283.460876,248.663330 
	C301.512238,239.911133 313.895477,225.786606 318.936981,206.034561 
	C321.656525,195.379639 327.159210,190.007294 336.266174,189.976089 
	C345.573029,189.944199 355.621674,199.230392 352.026764,210.797073 
	C350.082092,217.054077 348.041016,223.281097 346.007141,229.912430 
z"/>
</svg>