<svg version="1.1" id="Layer_1" xmlns="http://www.w3.org/2000/svg" xmlns:xlink="http://www.w3.org/1999/xlink" x="0px" y="0px"
	 width="100%" viewBox="0 0 512 512" enable-background="new 0 0 512 512" xml:space="preserve">
<path fill="#fff" opacity="1.000000" stroke="none" 
	d="
M302.000000,513.000000 
	C201.357773,513.000000 101.215538,513.000000 1.036655,513.000000 
	C1.036655,342.399414 1.036655,171.798813 1.036655,1.099110 
	C171.558914,1.099110 342.117889,1.099110 512.838440,1.099110 
	C512.838440,171.666550 512.838440,342.333252 512.838440,513.000000 
	C442.798798,513.000000 372.649384,513.000000 302.000000,513.000000 
M128.553741,492.999817 
	C215.370407,492.999847 302.187073,493.004578 389.003723,492.972260 
	C391.123260,492.971466 393.268799,492.700806 395.358093,492.316284 
	C413.274536,489.019043 428.259155,480.649078 439.970612,466.553284 
	C446.466675,458.734650 451.025421,449.997192 454.153503,440.296448 
	C458.075958,428.132233 457.745636,415.880768 455.954376,403.570099 
	C453.756958,388.467987 451.239410,373.410431 448.699951,358.360687 
	C446.244110,343.806396 443.465668,329.306213 441.044464,314.746429 
	C437.894073,295.802032 435.090302,276.799652 431.895996,257.862946 
	C427.039398,229.071716 421.822113,200.340759 417.067902,171.533066 
	C414.872650,158.231171 408.208527,147.652664 397.910156,139.631699 
	C389.126007,132.790085 378.401917,130.387192 367.332062,130.030350 
	C362.059326,129.860382 356.776581,130.001129 350.957336,130.001129 
	C351.492554,112.006310 350.969421,94.699059 343.740448,78.460640 
	C336.641815,62.514977 326.497681,48.971554 312.207336,38.648193 
	C297.854401,28.279612 281.756897,22.406170 264.295197,21.131317 
	C237.230392,19.155357 212.900711,27.204340 193.103897,45.670780 
	C168.974655,68.178490 160.385712,97.112236 163.313644,130.001236 
	C157.175812,130.001236 152.009720,129.637726 146.917786,130.096848 
	C141.068054,130.624283 135.015503,131.090652 129.519165,132.959961 
	C108.715736,140.035233 98.855713,155.745087 95.942177,176.822220 
	C94.144699,189.825623 91.809372,202.756134 89.628632,215.704727 
	C86.797012,232.518036 83.864250,249.314285 81.002625,266.122589 
	C78.441505,281.165771 75.917816,296.215332 73.377640,311.262085 
	C70.919518,325.822937 68.452614,340.382294 66.005737,354.945007 
	C63.476444,369.998230 60.534988,384.999634 58.602604,400.129517 
	C57.350002,409.937012 56.153133,420.127594 57.460930,429.804688 
	C59.880150,447.705811 68.357941,462.930695 82.334991,474.911102 
	C95.415649,486.123199 110.222618,492.650024 128.553741,492.999817 
z"/>
<path fill="#2b2d41" opacity="1.000000" stroke="none" 
	d="
M128.063873,492.999817 
	C110.222618,492.650024 95.415649,486.123199 82.334991,474.911102 
	C68.357941,462.930695 59.880150,447.705811 57.460930,429.804688 
	C56.153133,420.127594 57.350002,409.937012 58.602604,400.129517 
	C60.534988,384.999634 63.476444,369.998230 66.005737,354.945007 
	C68.452614,340.382294 70.919518,325.822937 73.377640,311.262085 
	C75.917816,296.215332 78.441505,281.165771 81.002625,266.122589 
	C83.864250,249.314285 86.797012,232.518036 89.628632,215.704727 
	C91.809372,202.756134 94.144699,189.825623 95.942177,176.822220 
	C98.855713,155.745087 108.715736,140.035233 129.519165,132.959961 
	C135.015503,131.090652 141.068054,130.624283 146.917786,130.096848 
	C152.009720,129.637726 157.175812,130.001236 163.313644,130.001236 
	C160.385712,97.112236 168.974655,68.178490 193.103897,45.670780 
	C212.900711,27.204340 237.230392,19.155357 264.295197,21.131317 
	C281.756897,22.406170 297.854401,28.279612 312.207336,38.648193 
	C326.497681,48.971554 336.641815,62.514977 343.740448,78.460640 
	C350.969421,94.699059 351.492554,112.006310 350.957336,130.001129 
	C356.776581,130.001129 362.059326,129.860382 367.332062,130.030350 
	C378.401917,130.387192 389.126007,132.790085 397.910156,139.631699 
	C408.208527,147.652664 414.872650,158.231171 417.067902,171.533066 
	C421.822113,200.340759 427.039398,229.071716 431.895996,257.862946 
	C435.090302,276.799652 437.894073,295.802032 441.044464,314.746429 
	C443.465668,329.306213 446.244110,343.806396 448.699951,358.360687 
	C451.239410,373.410431 453.756958,388.467987 455.954376,403.570099 
	C457.745636,415.880768 458.075958,428.132233 454.153503,440.296448 
	C451.025421,449.997192 446.466675,458.734650 439.970612,466.553284 
	C428.259155,480.649078 413.274536,489.019043 395.358093,492.316284 
	C393.268799,492.700806 391.123260,492.971466 389.003723,492.972260 
	C302.187073,493.004578 215.370407,492.999847 128.063873,492.999817 
M163.000031,170.504761 
	C163.000031,165.417725 163.000031,160.330704 163.000031,155.009094 
	C155.981384,155.009094 149.780197,154.537048 143.680435,155.122238 
	C135.021683,155.952927 126.965569,159.625580 124.250381,168.186569 
	C120.810783,179.031616 119.110718,190.457840 117.057701,201.705948 
	C114.288567,216.877548 111.877968,232.114960 109.350403,247.330246 
	C106.877022,262.219421 104.468765,277.119446 101.996811,292.008850 
	C99.820259,305.118988 97.597176,318.221375 95.390938,331.326569 
	C93.595291,341.992767 91.772301,352.654419 90.000809,363.324646 
	C87.554092,378.061890 85.160591,392.807922 82.714516,407.545288 
	C79.874634,424.655273 83.326050,440.011353 95.423759,452.906128 
	C106.566010,464.782379 120.930077,468.911652 136.564133,468.937744 
	C216.893936,469.071838 297.224091,469.017181 377.554077,468.953644 
	C381.996277,468.950134 386.556183,468.798889 390.859528,467.824921 
	C410.256256,463.434937 423.742401,452.208435 430.094543,432.982117 
	C434.047241,421.018219 431.794586,409.077515 429.845062,397.237915 
	C425.797150,372.654877 421.196350,348.163239 417.075378,323.591705 
	C412.865417,298.489899 409.016846,273.327698 404.900940,248.209793 
	C400.999603,224.401581 397.025024,200.604843 392.940094,176.827560 
	C391.472504,168.285126 387.389282,161.493515 379.166870,157.566162 
	C370.115875,153.243073 360.727905,155.638931 350.999603,155.009933 
	C350.999603,157.491028 350.999725,159.294479 350.999573,161.097931 
	C350.998749,170.597534 351.085083,180.098267 350.962585,189.596298 
	C350.894928,194.838837 348.232483,198.843399 343.542603,200.915436 
	C338.455597,203.162933 333.223816,202.676804 329.718933,197.994827 
	C327.794678,195.424362 326.286285,191.895737 326.165588,188.738922 
	C325.741730,177.653000 326.001038,166.540939 326.001038,155.287598 
	C279.726898,155.287598 234.149033,155.287598 187.999664,155.287598 
	C187.999664,166.516937 187.666397,177.481674 188.109726,188.414917 
	C188.438507,196.523178 181.379059,202.207748 175.555984,202.052414 
	C168.144196,201.854691 163.047394,196.571823 163.006180,188.501892 
	C162.977234,182.835617 163.000229,177.169052 163.000031,170.504761 
M214.059662,60.477497 
	C192.578598,78.731316 185.459793,102.250885 188.511520,129.711700 
	C234.293335,129.711700 279.861237,129.711700 325.308655,129.711700 
	C325.582245,129.144318 325.835938,128.859375 325.841766,128.569458 
	C325.915314,124.907677 325.949371,121.245125 326.000610,117.582870 
	C326.345886,92.878304 316.544617,73.033386 296.789062,58.400227 
	C280.905396,46.634968 262.851807,43.552780 243.558777,46.969368 
	C232.811172,48.872650 223.319016,53.567455 214.059662,60.477497 
z"/>
<path fill="#fff" opacity="1.000000" stroke="none" 
	d="
M163.000031,171.003693 
	C163.000229,177.169052 162.977234,182.835617 163.006180,188.501892 
	C163.047394,196.571823 168.144196,201.854691 175.555984,202.052414 
	C181.379059,202.207748 188.438507,196.523178 188.109726,188.414917 
	C187.666397,177.481674 187.999664,166.516937 187.999664,155.287598 
	C234.149033,155.287598 279.726898,155.287598 326.001038,155.287598 
	C326.001038,166.540939 325.741730,177.653000 326.165588,188.738922 
	C326.286285,191.895737 327.794678,195.424362 329.718933,197.994827 
	C333.223816,202.676804 338.455597,203.162933 343.542603,200.915436 
	C348.232483,198.843399 350.894928,194.838837 350.962585,189.596298 
	C351.085083,180.098267 350.998749,170.597534 350.999573,161.097931 
	C350.999725,159.294479 350.999603,157.491028 350.999603,155.009933 
	C360.727905,155.638931 370.115875,153.243073 379.166870,157.566162 
	C387.389282,161.493515 391.472504,168.285126 392.940094,176.827560 
	C397.025024,200.604843 400.999603,224.401581 404.900940,248.209793 
	C409.016846,273.327698 412.865417,298.489899 417.075378,323.591705 
	C421.196350,348.163239 425.797150,372.654877 429.845062,397.237915 
	C431.794586,409.077515 434.047241,421.018219 430.094543,432.982117 
	C423.742401,452.208435 410.256256,463.434937 390.859528,467.824921 
	C386.556183,468.798889 381.996277,468.950134 377.554077,468.953644 
	C297.224091,469.017181 216.893936,469.071838 136.564133,468.937744 
	C120.930077,468.911652 106.566010,464.782379 95.423759,452.906128 
	C83.326050,440.011353 79.874634,424.655273 82.714516,407.545288 
	C85.160591,392.807922 87.554092,378.061890 90.000809,363.324646 
	C91.772301,352.654419 93.595291,341.992767 95.390938,331.326569 
	C97.597176,318.221375 99.820259,305.118988 101.996811,292.008850 
	C104.468765,277.119446 106.877022,262.219421 109.350403,247.330246 
	C111.877968,232.114960 114.288567,216.877548 117.057701,201.705948 
	C119.110718,190.457840 120.810783,179.031616 124.250381,168.186569 
	C126.965569,159.625580 135.021683,155.952927 143.680435,155.122238 
	C149.780197,154.537048 155.981384,155.009094 163.000031,155.009094 
	C163.000031,160.330704 163.000031,165.417725 163.000031,171.003693 
z"/>
<path fill="#fff" opacity="1.000000" stroke="none" 
	d="
M214.352478,60.269081 
	C223.319016,53.567455 232.811172,48.872650 243.558777,46.969368 
	C262.851807,43.552780 280.905396,46.634968 296.789062,58.400227 
	C316.544617,73.033386 326.345886,92.878304 326.000610,117.582870 
	C325.949371,121.245125 325.915314,124.907677 325.841766,128.569458 
	C325.835938,128.859375 325.582245,129.144318 325.308655,129.711700 
	C279.861237,129.711700 234.293335,129.711700 188.511520,129.711700 
	C185.459793,102.250885 192.578598,78.731316 214.352478,60.269081 
z"/>
</svg>