<svg version="1.1" id="Layer_1" xmlns="http://www.w3.org/2000/svg" xmlns:xlink="http://www.w3.org/1999/xlink" x="0px" y="0px"
	 width="100%" viewBox="0 0 512 512" enable-background="new 0 0 512 512" xml:space="preserve">
<path fill="#f0f0f0" opacity="1.000000" stroke="none" 
	d="
M1.000000,179.000000 
	C1.000000,119.333336 1.000000,60.166668 1.000000,1.000000 
	C171.666672,1.000000 342.333344,1.000000 513.000000,1.000000 
	C513.000000,171.666672 513.000000,342.333344 513.000000,513.000000 
	C342.333344,513.000000 171.666672,513.000000 1.000000,513.000000 
	C1.000000,401.833344 1.000000,290.666656 1.000000,179.000000 
M44.038528,226.530441 
	C52.763367,231.349426 62.018040,233.170334 72.057961,233.116699 
	C120.550133,232.857620 169.044449,233.002289 217.538010,232.997910 
	C227.100388,232.997040 232.996384,227.137192 232.997437,217.625412 
	C233.002808,168.465286 232.881241,119.304604 233.104065,70.145485 
	C233.146652,60.746891 231.088959,52.138660 226.532288,44.137691 
	C216.699646,26.872787 201.822983,17.261955 181.844406,17.091200 
	C144.685394,16.773605 107.520653,17.153246 70.360764,16.891518 
	C61.146336,16.826620 52.636147,18.688059 44.762955,23.124521 
	C27.154551,33.046680 17.209669,48.034187 17.073885,68.482254 
	C16.818272,106.975441 16.996748,145.471527 17.011496,183.966415 
	C17.012194,185.789963 16.884501,187.683762 17.306952,189.425964 
	C21.112261,205.119293 28.806295,218.090210 44.038528,226.530441 
M448.312469,232.999725 
	C451.079834,232.649017 453.920288,232.585571 456.603088,231.902679 
	C480.441162,225.834778 497.286469,204.627441 497.081329,180.459290 
	C496.770233,143.802429 496.848419,107.139900 497.106201,70.482216 
	C497.170929,61.277012 495.316864,52.791851 490.925476,44.871174 
	C481.097748,27.145060 466.104858,17.245960 445.686279,17.083874 
	C408.529236,16.788910 371.367065,17.153698 334.209503,16.892969 
	C324.810333,16.827019 316.182495,18.856350 308.197906,23.440222 
	C291.017761,33.303162 281.210449,48.109467 281.094971,68.098854 
	C280.807159,117.920784 280.997803,167.745499 281.002380,217.569092 
	C281.003265,227.128342 286.852997,232.996780 296.383026,232.997665 
	C346.706512,233.002335 397.030029,232.999802 448.312469,232.999725 
M233.000000,323.500000 
	C232.999985,314.670135 233.002853,305.840271 232.999191,297.010406 
	C232.994904,286.686249 227.387238,281.001984 217.190018,281.001404 
	C167.042526,280.998474 116.895004,280.981567 66.747589,281.044952 
	C63.646938,281.048889 60.459621,281.348755 57.460701,282.101105 
	C33.425571,288.131195 16.661812,309.793884 16.902452,333.576508 
	C17.273283,370.225403 17.150627,406.881897 16.894554,443.532776 
	C16.830244,452.737091 18.639267,461.252838 23.089163,469.136505 
	C33.001060,486.696930 47.907879,496.762329 68.328064,496.916840 
	C106.477959,497.205536 144.631638,497.025391 182.783585,496.954285 
	C186.051056,496.948181 189.414825,496.686188 192.568649,495.889252 
	C216.249710,489.905518 233.274109,468.783264 233.084442,444.453461 
	C232.772720,404.471191 232.999985,364.484711 233.000000,323.500000 
M407.500000,497.000000 
	C419.497101,496.999969 431.504425,496.695404 443.488037,497.097412 
	C452.886017,497.412689 461.554230,495.301086 469.538208,490.707825 
	C486.802887,480.775360 496.772919,465.984802 496.921844,445.766571 
	C497.195526,408.610840 496.865295,371.450806 497.096954,334.294525 
	C497.153229,325.272278 495.357361,316.952911 491.021576,309.166168 
	C481.101990,291.351379 466.110779,281.198181 445.521729,281.086792 
	C396.035034,280.819000 346.545959,280.998810 297.057831,281.001007 
	C286.522644,281.001465 281.001160,286.599640 281.000824,297.276978 
	C280.999237,347.264984 280.981628,397.252991 281.045166,447.240906 
	C281.049103,450.343597 281.361237,453.528320 282.100677,456.534515 
	C288.027161,480.627808 310.258759,497.514130 333.519257,497.097290 
	C357.838928,496.661499 382.172516,496.999969 407.500000,497.000000 
z"/>
<path fill="#6A6C76" opacity="1.000000" stroke="none" 
	d="
M43.730106,226.319504 
	C28.806295,218.090210 21.112261,205.119293 17.306952,189.425964 
	C16.884501,187.683762 17.012194,185.789963 17.011496,183.966415 
	C16.996748,145.471527 16.818272,106.975441 17.073885,68.482254 
	C17.209669,48.034187 27.154551,33.046680 44.762955,23.124521 
	C52.636147,18.688059 61.146336,16.826620 70.360764,16.891518 
	C107.520653,17.153246 144.685394,16.773605 181.844406,17.091200 
	C201.822983,17.261955 216.699646,26.872787 226.532288,44.137691 
	C231.088959,52.138660 233.146652,60.746891 233.104065,70.145485 
	C232.881241,119.304604 233.002808,168.465286 232.997437,217.625412 
	C232.996384,227.137192 227.100388,232.997040 217.538010,232.997910 
	C169.044449,233.002289 120.550133,232.857620 72.057961,233.116699 
	C62.018040,233.170334 52.763367,231.349426 43.730106,226.319504 
M168.473663,49.000023 
	C137.496262,49.000069 106.518471,48.924377 75.541954,49.089439 
	C71.345474,49.111801 66.929497,49.715332 63.005180,51.130962 
	C51.694370,55.211147 49.139732,64.958145 49.075283,75.459068 
	C48.872910,108.433800 48.930191,141.410889 49.088463,174.386108 
	C49.108597,178.581085 49.691849,182.999176 51.108616,186.918274 
	C54.993259,197.664078 64.079674,200.887756 74.387245,200.930313 
	C115.023613,201.098175 155.661087,201.002563 196.298141,200.984802 
	C197.735794,200.984177 199.173355,200.773346 200.999939,200.629929 
	C200.999939,198.310318 200.999954,196.341553 200.999954,194.372787 
	C200.999969,166.892807 201.109329,139.412216 200.955704,111.933090 
	C200.874100,97.338005 200.431641,82.742424 199.964249,68.153084 
	C199.733047,60.936165 196.089462,54.973267 189.606720,52.583282 
	C183.307693,50.261044 176.209549,50.106468 168.473663,49.000023 
z"/>
<path fill="#6A6C76" opacity="1.000000" stroke="none" 
	d="
M447.833008,232.999756 
	C397.030029,232.999802 346.706512,233.002335 296.383026,232.997665 
	C286.852997,232.996780 281.003265,227.128342 281.002380,217.569092 
	C280.997803,167.745499 280.807159,117.920784 281.094971,68.098854 
	C281.210449,48.109467 291.017761,33.303162 308.197906,23.440222 
	C316.182495,18.856350 324.810333,16.827019 334.209503,16.892969 
	C371.367065,17.153698 408.529236,16.788910 445.686279,17.083874 
	C466.104858,17.245960 481.097748,27.145060 490.925476,44.871174 
	C495.316864,52.791851 497.170929,61.277012 497.106201,70.482216 
	C496.848419,107.139900 496.770233,143.802429 497.081329,180.459290 
	C497.286469,204.627441 480.441162,225.834778 456.603088,231.902679 
	C453.920288,232.585571 451.079834,232.649017 447.833008,232.999756 
M313.000000,108.500000 
	C313.000000,139.226608 313.000000,169.953201 313.000000,200.673325 
	C314.462158,200.837830 315.114044,200.975159 315.765961,200.975372 
	C357.401367,200.989426 399.036926,201.042618 440.671875,200.905701 
	C444.195709,200.894119 447.897797,200.082565 451.203522,198.821060 
	C462.187103,194.629639 464.857147,185.157990 464.921753,174.825562 
	C465.129059,141.685059 465.071655,108.542084 464.908203,75.401085 
	C464.887543,71.209938 464.266388,66.787926 462.818146,62.882797 
	C458.935638,52.413895 450.039948,49.128887 439.899353,49.072659 
	C405.925873,48.884274 371.950165,48.897709 337.976715,49.086887 
	C331.013885,49.125660 324.331116,50.724998 319.162170,56.264561 
	C313.730621,62.085529 313.280243,69.321899 313.075012,76.525375 
	C312.781128,86.842583 313.000031,97.174416 313.000000,108.500000 
z"/>
<path fill="#6A6C76" opacity="1.000000" stroke="none" 
	d="
M233.000000,324.000000 
	C232.999985,364.484711 232.772720,404.471191 233.084442,444.453461 
	C233.274109,468.783264 216.249710,489.905518 192.568649,495.889252 
	C189.414825,496.686188 186.051056,496.948181 182.783585,496.954285 
	C144.631638,497.025391 106.477959,497.205536 68.328064,496.916840 
	C47.907879,496.762329 33.001060,486.696930 23.089163,469.136505 
	C18.639267,461.252838 16.830244,452.737091 16.894554,443.532776 
	C17.150627,406.881897 17.273283,370.225403 16.902452,333.576508 
	C16.661812,309.793884 33.425571,288.131195 57.460701,282.101105 
	C60.459621,281.348755 63.646938,281.048889 66.747589,281.044952 
	C116.895004,280.981567 167.042526,280.998474 217.190018,281.001404 
	C227.387238,281.001984 232.994904,286.686249 232.999191,297.010406 
	C233.002853,305.840271 232.999985,314.670135 233.000000,324.000000 
M50.003399,330.813782 
	C49.669128,333.749390 49.050301,336.684387 49.044170,339.620667 
	C48.975349,372.604370 48.928154,405.588684 49.091431,438.571716 
	C49.112186,442.764435 49.720409,447.191315 51.172691,451.094360 
	C55.154812,461.796387 64.277184,464.888458 74.583015,464.938354 
	C108.232430,465.101257 141.883438,465.064911 175.532928,464.909760 
	C179.395630,464.891937 183.464462,464.208496 187.073151,462.858887 
	C198.568954,458.559631 200.898407,448.618103 200.939026,437.954895 
	C201.090729,398.141602 201.002853,358.327423 200.989044,318.513550 
	C200.988434,316.760345 200.832596,315.007233 200.753433,313.345795 
	C199.658005,313.182281 199.168900,313.045593 198.679733,313.045349 
	C156.867050,313.024811 115.052048,312.768646 73.243149,313.161682 
	C61.456139,313.272491 53.781044,317.535095 50.003399,330.813782 
z"/>
<path fill="#6A6C76" opacity="1.000000" stroke="none" 
	d="
M407.000000,497.000000 
	C382.172516,496.999969 357.838928,496.661499 333.519257,497.097290 
	C310.258759,497.514130 288.027161,480.627808 282.100677,456.534515 
	C281.361237,453.528320 281.049103,450.343597 281.045166,447.240906 
	C280.981628,397.252991 280.999237,347.264984 281.000824,297.276978 
	C281.001160,286.599640 286.522644,281.001465 297.057831,281.001007 
	C346.545959,280.998810 396.035034,280.819000 445.521729,281.086792 
	C466.110779,281.198181 481.101990,291.351379 491.021576,309.166168 
	C495.357361,316.952911 497.153229,325.272278 497.096954,334.294525 
	C496.865295,371.450806 497.195526,408.610840 496.921844,445.766571 
	C496.772919,465.984802 486.802887,480.775360 469.538208,490.707825 
	C461.554230,495.301086 452.886017,497.412689 443.488037,497.097412 
	C431.504425,496.695404 419.497101,496.999969 407.000000,497.000000 
M465.000000,364.500000 
	C464.999756,356.172974 465.215424,347.837952 464.908966,339.522217 
	C464.753815,335.312683 464.305359,330.897125 462.859436,326.993317 
	C458.809113,316.057861 449.501678,313.082489 439.018585,313.050201 
	C398.882355,312.926636 358.745514,312.997253 318.608917,313.010223 
	C316.848114,313.010803 315.087402,313.157562 313.316193,313.236694 
	C313.173370,314.425262 313.027466,315.073730 313.027222,315.722260 
	C313.011963,357.024628 312.953857,398.327148 313.094208,439.629028 
	C313.107300,443.484833 313.826691,447.544586 315.177551,451.150238 
	C319.013977,461.390442 327.683441,464.842834 337.630859,464.909363 
	C371.936981,465.138794 406.246857,465.163666 440.552368,464.892395 
	C450.467682,464.813995 459.207947,461.285950 462.866577,450.973297 
	C464.314453,446.892212 464.875214,442.307617 464.909332,437.945038 
	C465.098022,413.797913 464.999878,389.648590 465.000000,364.500000 
z"/>
<path fill="#f0f0f0" opacity="1.000000" stroke="none" 
	d="
M168.967987,49.000023 
	C176.209549,50.106468 183.307693,50.261044 189.606720,52.583282 
	C196.089462,54.973267 199.733047,60.936165 199.964249,68.153084 
	C200.431641,82.742424 200.874100,97.338005 200.955704,111.933090 
	C201.109329,139.412216 200.999969,166.892807 200.999954,194.372787 
	C200.999954,196.341553 200.999939,198.310318 200.999939,200.629929 
	C199.173355,200.773346 197.735794,200.984177 196.298141,200.984802 
	C155.661087,201.002563 115.023613,201.098175 74.387245,200.930313 
	C64.079674,200.887756 54.993259,197.664078 51.108616,186.918274 
	C49.691849,182.999176 49.108597,178.581085 49.088463,174.386108 
	C48.930191,141.410889 48.872910,108.433800 49.075283,75.459068 
	C49.139732,64.958145 51.694370,55.211147 63.005180,51.130962 
	C66.929497,49.715332 71.345474,49.111801 75.541954,49.089439 
	C106.518471,48.924377 137.496262,49.000069 168.967987,49.000023 
z"/>
<path fill="#f0f0f0" opacity="1.000000" stroke="none" 
	d="
M313.000000,108.000000 
	C313.000031,97.174416 312.781128,86.842583 313.075012,76.525375 
	C313.280243,69.321899 313.730621,62.085529 319.162170,56.264561 
	C324.331116,50.724998 331.013885,49.125660 337.976715,49.086887 
	C371.950165,48.897709 405.925873,48.884274 439.899353,49.072659 
	C450.039948,49.128887 458.935638,52.413895 462.818146,62.882797 
	C464.266388,66.787926 464.887543,71.209938 464.908203,75.401085 
	C465.071655,108.542084 465.129059,141.685059 464.921753,174.825562 
	C464.857147,185.157990 462.187103,194.629639 451.203522,198.821060 
	C447.897797,200.082565 444.195709,200.894119 440.671875,200.905701 
	C399.036926,201.042618 357.401367,200.989426 315.765961,200.975372 
	C315.114044,200.975159 314.462158,200.837830 313.000000,200.673325 
	C313.000000,169.953201 313.000000,139.226608 313.000000,108.000000 
z"/>
<path fill="#f0f0f0" opacity="1.000000" stroke="none" 
	d="
M50.010406,330.388031 
	C53.781044,317.535095 61.456139,313.272491 73.243149,313.161682 
	C115.052048,312.768646 156.867050,313.024811 198.679733,313.045349 
	C199.168900,313.045593 199.658005,313.182281 200.753433,313.345795 
	C200.832596,315.007233 200.988434,316.760345 200.989044,318.513550 
	C201.002853,358.327423 201.090729,398.141602 200.939026,437.954895 
	C200.898407,448.618103 198.568954,458.559631 187.073151,462.858887 
	C183.464462,464.208496 179.395630,464.891937 175.532928,464.909760 
	C141.883438,465.064911 108.232430,465.101257 74.583015,464.938354 
	C64.277184,464.888458 55.154812,461.796387 51.172691,451.094360 
	C49.720409,447.191315 49.112186,442.764435 49.091431,438.571716 
	C48.928154,405.588684 48.975349,372.604370 49.044170,339.620667 
	C49.050301,336.684387 49.669128,333.749390 50.010406,330.388031 
z"/>
<path fill="#f0f0f0" opacity="1.000000" stroke="none" 
	d="
M465.000000,365.000000 
	C464.999878,389.648590 465.098022,413.797913 464.909332,437.945038 
	C464.875214,442.307617 464.314453,446.892212 462.866577,450.973297 
	C459.207947,461.285950 450.467682,464.813995 440.552368,464.892395 
	C406.246857,465.163666 371.936981,465.138794 337.630859,464.909363 
	C327.683441,464.842834 319.013977,461.390442 315.177551,451.150238 
	C313.826691,447.544586 313.107300,443.484833 313.094208,439.629028 
	C312.953857,398.327148 313.011963,357.024628 313.027222,315.722260 
	C313.027466,315.073730 313.173370,314.425262 313.316193,313.236694 
	C315.087402,313.157562 316.848114,313.010803 318.608917,313.010223 
	C358.745514,312.997253 398.882355,312.926636 439.018585,313.050201 
	C449.501678,313.082489 458.809113,316.057861 462.859436,326.993317 
	C464.305359,330.897125 464.753815,335.312683 464.908966,339.522217 
	C465.215424,347.837952 464.999756,356.172974 465.000000,365.000000 
z"/>
</svg>