<svg version="1.1" id="Layer_1" xmlns="http://www.w3.org/2000/svg" xmlns:xlink="http://www.w3.org/1999/xlink" x="0px" y="0px"
	 width="100%" viewBox="0 0 512 512" enable-background="new 0 0 512 512" xml:space="preserve">
<path fill="#fff" opacity="1.000000" stroke="none" 
	d="
M513.000000,269.000000 
	C513.000000,350.289703 513.000000,431.579376 513.000000,512.934570 
	C342.333344,512.934570 171.666672,512.934570 1.000000,512.934570 
	C1.000000,493.249695 1.000000,473.593506 1.370048,453.459412 
	C20.983269,444.038025 40.239395,435.122284 59.466503,426.144348 
	C86.412880,413.562012 113.305931,400.864624 140.314224,388.416992 
	C143.472061,386.961609 147.213577,386.104919 150.686432,386.098999 
	C226.466705,385.969666 302.247650,386.112457 378.027222,385.850708 
	C386.963318,385.819855 396.087616,384.549347 404.788910,382.457123 
	C433.905945,375.455811 458.584442,360.894897 478.454712,338.161713 
	C495.451904,318.715576 506.333893,296.504425 511.072968,271.179047 
	C511.226013,270.361145 512.336060,269.722321 513.000000,269.000000 
z"/>
<path fill="#4BB299" opacity="1.000000" stroke="none" 
	d="
M513.000000,268.531342 
	C512.336060,269.722321 511.226013,270.361145 511.072968,271.179047 
	C506.333893,296.504425 495.451904,318.715576 478.454712,338.161713 
	C458.584442,360.894897 433.905945,375.455811 404.788910,382.457123 
	C396.087616,384.549347 386.963318,385.819855 378.027222,385.850708 
	C302.247650,386.112457 226.466705,385.969666 150.686432,386.098999 
	C147.213577,386.104919 143.472061,386.961609 140.314224,388.416992 
	C113.305931,400.864624 86.412880,413.562012 59.466503,426.144348 
	C40.239395,435.122284 20.983269,444.038025 1.370048,452.990784 
	C1.000000,361.645782 1.000000,270.291534 1.366124,178.705429 
	C3.143946,173.526428 4.652087,168.604477 5.950967,163.627914 
	C12.221443,139.603104 24.832472,119.124313 42.141880,101.735550 
	C49.579033,94.264297 58.541973,88.145065 67.382835,82.271194 
	C88.501427,68.240036 112.199547,61.292339 137.331451,61.157459 
	C216.776474,60.731087 296.225281,60.980404 375.672516,61.044342 
	C380.937988,61.048580 386.266724,61.285553 391.456696,62.105938 
	C409.954987,65.029999 427.555206,70.590759 443.761871,80.286140 
	C461.538727,90.920822 476.383057,104.626717 488.227173,121.592133 
	C499.798676,138.166977 507.597931,156.322662 511.087006,176.291458 
	C511.202423,176.952209 512.339294,177.434509 513.000000,178.000000 
	C513.000000,208.020889 513.000000,238.041794 513.000000,268.531342 
M350.500000,93.000015 
	C277.253784,93.333374 204.002792,93.328941 130.766586,94.366867 
	C119.870476,94.521294 108.568848,98.419624 98.284531,102.618225 
	C77.154312,111.244698 60.894093,126.179962 48.900471,145.626770 
	C39.184471,161.380585 33.181843,178.496384 33.106190,197.036591 
	C32.835609,263.348969 33.000263,329.663086 33.000275,395.976562 
	C33.000275,397.888428 33.000275,399.800293 33.000275,402.226257 
	C37.259663,400.354797 40.845856,398.858032 44.366241,397.219849 
	C70.469429,385.072784 96.626907,373.039001 122.617485,360.655151 
	C131.807922,356.276154 140.900681,353.732056 151.381424,353.788239 
	C225.523773,354.185669 299.670105,354.172546 373.812622,353.791901 
	C383.649445,353.741394 393.743866,351.830383 403.246796,349.123413 
	C426.099609,342.613617 444.574280,329.265533 459.094452,310.427429 
	C471.921783,293.785553 479.675690,274.801239 480.677490,254.088348 
	C481.758789,231.731598 480.862061,209.228226 479.792297,186.838303 
	C479.189362,174.219086 474.405334,162.304810 468.485321,151.157104 
	C462.576111,140.029785 454.642822,130.356491 445.342560,121.778702 
	C432.306976,109.755821 417.172028,101.730598 400.154419,96.979897 
	C384.172791,92.518410 367.833221,92.908562 350.500000,93.000015 
z"/>
<path fill="#fff" opacity="1.000000" stroke="none" 
	d="
M513.000000,177.531342 
	C512.339294,177.434509 511.202423,176.952209 511.087006,176.291458 
	C507.597931,156.322662 499.798676,138.166977 488.227173,121.592133 
	C476.383057,104.626717 461.538727,90.920822 443.761871,80.286140 
	C427.555206,70.590759 409.954987,65.029999 391.456696,62.105938 
	C386.266724,61.285553 380.937988,61.048580 375.672516,61.044342 
	C296.225281,60.980404 216.776474,60.731087 137.331451,61.157459 
	C112.199547,61.292339 88.501427,68.240036 67.382835,82.271194 
	C58.541973,88.145065 49.579033,94.264297 42.141880,101.735550 
	C24.832472,119.124313 12.221443,139.603104 5.950967,163.627914 
	C4.652087,168.604477 3.143946,173.526428 1.366124,178.236771 
	C1.000000,119.029800 1.000000,60.059601 1.000000,1.044700 
	C171.550644,1.044700 342.101318,1.044700 513.000000,1.044700 
	C513.000000,59.687103 513.000000,118.374893 513.000000,177.531342 
z"/>
<path fill="#fff" opacity="1.000000" stroke="none" 
	d="
M351.000000,93.000015 
	C367.833221,92.908562 384.172791,92.518410 400.154419,96.979897 
	C417.172028,101.730598 432.306976,109.755821 445.342560,121.778702 
	C454.642822,130.356491 462.576111,140.029785 468.485321,151.157104 
	C474.405334,162.304810 479.189362,174.219086 479.792297,186.838303 
	C480.862061,209.228226 481.758789,231.731598 480.677490,254.088348 
	C479.675690,274.801239 471.921783,293.785553 459.094452,310.427429 
	C444.574280,329.265533 426.099609,342.613617 403.246796,349.123413 
	C393.743866,351.830383 383.649445,353.741394 373.812622,353.791901 
	C299.670105,354.172546 225.523773,354.185669 151.381424,353.788239 
	C140.900681,353.732056 131.807922,356.276154 122.617485,360.655151 
	C96.626907,373.039001 70.469429,385.072784 44.366241,397.219849 
	C40.845856,398.858032 37.259663,400.354797 33.000275,402.226257 
	C33.000275,399.800293 33.000275,397.888428 33.000275,395.976562 
	C33.000263,329.663086 32.835609,263.348969 33.106190,197.036591 
	C33.181843,178.496384 39.184471,161.380585 48.900471,145.626770 
	C60.894093,126.179962 77.154312,111.244698 98.284531,102.618225 
	C108.568848,98.419624 119.870476,94.521294 130.766586,94.366867 
	C204.002792,93.328941 277.253784,93.333374 351.000000,93.000015 
M275.916779,205.438995 
	C270.191101,203.292862 264.581909,199.753159 258.717834,199.263168 
	C241.467224,197.821732 225.895935,212.006042 226.892700,230.127090 
	C227.596252,242.917191 233.333206,251.996002 244.771896,257.226532 
	C256.428986,262.556946 268.962708,259.797150 277.636688,251.807770 
	C289.588409,240.799316 291.637970,219.086243 275.916779,205.438995 
M173.508896,208.006927 
	C164.182541,198.842285 151.434021,197.088455 141.408737,200.894394 
	C125.472511,206.944321 117.704018,223.332031 123.933304,240.771774 
	C128.223175,252.781845 137.712784,258.595551 149.601883,259.752106 
	C159.820099,260.746094 169.168640,256.842133 175.529175,248.569443 
	C185.215744,235.970840 184.325760,220.979843 173.508896,208.006927 
M333.055542,239.000565 
	C334.017120,240.898605 334.909912,242.835312 335.951599,244.688309 
	C342.043335,255.524384 352.044312,260.356934 363.723419,259.756836 
	C380.222382,258.909027 392.714539,245.850143 392.198608,228.371216 
	C391.725067,212.326736 379.040253,199.568710 363.055695,199.081787 
	C342.053192,198.442001 327.592865,217.526672 333.055542,239.000565 
z"/>
<path fill="#4BB299" opacity="1.000000" stroke="none" 
	d="
M276.175171,205.697418 
	C291.637970,219.086243 289.588409,240.799316 277.636688,251.807770 
	C268.962708,259.797150 256.428986,262.556946 244.771896,257.226532 
	C233.333206,251.996002 227.596252,242.917191 226.892700,230.127090 
	C225.895935,212.006042 241.467224,197.821732 258.717834,199.263168 
	C264.581909,199.753159 270.191101,203.292862 276.175171,205.697418 
z"/>
<path fill="#4BB299" opacity="1.000000" stroke="none" 
	d="
M173.762482,208.264740 
	C184.325760,220.979843 185.215744,235.970840 175.529175,248.569443 
	C169.168640,256.842133 159.820099,260.746094 149.601883,259.752106 
	C137.712784,258.595551 128.223175,252.781845 123.933304,240.771774 
	C117.704018,223.332031 125.472511,206.944321 141.408737,200.894394 
	C151.434021,197.088455 164.182541,198.842285 173.762482,208.264740 
z"/>
<path fill="#4BB299" opacity="1.000000" stroke="none" 
	d="
M333.030212,238.583160 
	C327.592865,217.526672 342.053192,198.442001 363.055695,199.081787 
	C379.040253,199.568710 391.725067,212.326736 392.198608,228.371216 
	C392.714539,245.850143 380.222382,258.909027 363.723419,259.756836 
	C352.044312,260.356934 342.043335,255.524384 335.951599,244.688309 
	C334.909912,242.835312 334.017120,240.898605 333.030212,238.583160 
z"/>
</svg>