<svg version="1.1" id="Layer_1" xmlns="http://www.w3.org/2000/svg" xmlns:xlink="http://www.w3.org/1999/xlink" x="0px" y="0px"
	 width="100%" viewBox="0 0 512 512" enable-background="new 0 0 512 512" xml:space="preserve">
<path fill="#6A6C76" opacity="1.000000" stroke="none" 
	d="
M186.000000,1.000000 
	C192.354401,1.000000 198.708786,1.000000 205.305557,1.315680 
	C217.902863,12.456748 230.247604,23.293819 242.618805,34.100586 
	C246.448532,37.446011 250.454422,40.596497 254.182953,44.048698 
	C256.741486,46.417591 258.724213,45.670841 260.876648,43.638477 
	C265.919800,38.876625 270.913574,34.056568 276.094696,29.448174 
	C283.350159,22.994703 290.798004,16.757963 298.082397,10.336411 
	C301.486389,7.335602 304.700043,4.118864 308.000000,0.999997 
	C314.354401,1.000000 320.708801,1.000000 327.332855,1.329081 
	C344.991974,16.564686 362.381439,31.471207 379.892609,46.482029 
	C389.695496,37.699062 399.826721,28.691668 409.877411,19.595278 
	C418.182434,12.078789 427.603180,9.539418 438.152740,13.707265 
	C449.313629,18.116625 453.029053,27.238171 453.024475,38.600101 
	C452.983307,140.932037 453.000458,243.263992 453.000366,345.595947 
	C453.000305,389.762024 453.072205,433.928345 452.929657,478.093964 
	C452.905487,485.576660 450.448273,492.480103 443.975739,496.958252 
	C431.815521,505.371582 419.871918,503.788239 408.634644,493.236481 
	C399.147705,484.328308 389.232605,475.876038 379.457489,467.177917 
	C368.209259,477.364075 357.197693,487.403320 346.102966,497.349792 
	C341.693420,501.302948 337.091278,505.040833 332.594147,508.896973 
	C331.035797,510.233215 329.529846,511.630554 328.000000,513.000000 
	C321.645599,513.000000 315.291199,513.000000 308.646515,512.667358 
	C303.784607,508.603058 299.062439,505.039520 294.670715,501.106964 
	C283.319397,490.942413 272.098175,480.632202 260.863708,470.337952 
	C258.653290,468.312531 256.704132,467.649200 254.149567,469.965424 
	C246.452118,476.944824 238.625046,483.781433 230.834778,490.658173 
	C225.508896,495.359467 220.129608,500.000702 214.833099,504.734680 
	C211.827393,507.421143 208.940430,510.240479 206.000000,513.000000 
	C199.645599,513.000000 193.291214,513.000000 186.666931,512.670898 
	C169.014435,497.426331 151.631821,482.510956 134.127884,467.491425 
	C124.288338,476.308868 114.160301,485.336609 104.087883,494.425995 
	C95.783691,501.919739 86.371452,504.522278 75.814140,500.269470 
	C64.711006,495.796814 60.960735,486.724915 60.967617,475.331940 
	C61.024300,381.501740 60.999557,287.671478 60.999577,193.841248 
	C60.999588,141.176315 60.937023,88.511230 61.070702,35.846642 
	C61.089691,28.366821 63.695610,21.663994 70.052399,16.992624 
	C80.805290,9.090720 94.256882,9.883782 106.126801,21.451614 
	C115.193130,30.287199 125.029053,38.333088 134.601608,46.800110 
	C142.454956,39.652012 150.113632,32.562336 157.905624,25.622347 
	C165.671295,18.705811 173.573532,11.942682 181.408997,5.104380 
	C182.955444,3.754719 184.470474,2.369059 186.000000,1.000000 
M86.000137,171.500000 
	C86.000137,272.693176 86.000137,373.886322 86.000137,475.992096 
	C88.257973,474.425110 89.694885,473.623596 90.900513,472.559937 
	C99.957588,464.569427 108.979599,456.539032 117.991898,448.497955 
	C127.448814,440.060150 140.238373,439.443085 149.921524,447.522186 
	C158.922272,455.031982 167.518951,463.025818 176.300827,470.798309 
	C182.821838,476.569855 189.354492,482.328247 195.949234,488.151886 
	C210.476089,475.107178 224.905701,462.450775 238.980438,449.411346 
	C249.372055,439.783997 264.357666,439.521332 274.634308,449.078583 
	C285.052246,458.767303 295.687103,468.223480 306.267242,477.736694 
	C310.159302,481.236328 314.166595,484.607819 318.300110,488.192810 
	C331.985382,475.855743 345.756744,463.956726 358.921814,451.421021 
	C370.945251,439.972382 385.543457,438.680481 396.363098,448.659790 
	C401.326324,453.237549 406.475250,457.614777 411.564301,462.055084 
	C416.714966,466.549133 421.895660,471.008728 427.733978,476.064270 
	C427.733978,329.663910 427.733978,184.334732 427.733978,38.220699 
	C425.528564,39.846714 423.758698,40.957573 422.213470,42.322678 
	C412.925781,50.527691 403.804230,58.924526 394.401520,66.994347 
	C386.303284,73.944618 372.353088,73.783760 364.329132,66.766281 
	C354.619690,58.274757 345.116241,49.548275 335.461914,40.993114 
	C329.689117,35.877560 323.798218,30.895321 318.047394,25.928297 
	C303.330231,39.129982 288.835052,51.942749 274.563629,65.000107 
	C264.806458,73.927231 250.420197,74.558937 240.404510,65.828835 
	C232.789261,59.191048 225.464355,52.221294 217.949448,45.466930 
	C210.704971,38.955650 203.382492,32.531158 195.876846,25.875715 
	C189.159653,31.836472 182.519012,37.736282 175.870605,43.627308 
	C167.100311,51.398487 158.507889,59.384232 149.498657,66.868027 
	C140.399185,74.426788 127.242775,73.756500 118.338242,65.834503 
	C112.169624,60.346546 106.059319,54.791855 99.832405,49.370995 
	C95.562447,45.653759 91.136925,42.115219 86.000221,37.848278 
	C86.000221,82.891655 86.000221,126.695831 86.000137,171.500000 
z"/>
<path fill="#f0f0f0" opacity="1.000000" stroke="none" 
	d="
M185.531342,1.000000 
	C184.470474,2.369059 182.955444,3.754719 181.408997,5.104380 
	C173.573532,11.942682 165.671295,18.705811 157.905624,25.622347 
	C150.113632,32.562336 142.454956,39.652012 134.601608,46.800110 
	C125.029053,38.333088 115.193130,30.287199 106.126801,21.451614 
	C94.256882,9.883782 80.805290,9.090720 70.052399,16.992624 
	C63.695610,21.663994 61.089691,28.366821 61.070702,35.846642 
	C60.937023,88.511230 60.999588,141.176315 60.999577,193.841248 
	C60.999557,287.671478 61.024300,381.501740 60.967617,475.331940 
	C60.960735,486.724915 64.711006,495.796814 75.814140,500.269470 
	C86.371452,504.522278 95.783691,501.919739 104.087883,494.425995 
	C114.160301,485.336609 124.288338,476.308868 134.127884,467.491425 
	C151.631821,482.510956 169.014435,497.426331 186.198517,512.670898 
	C124.363930,513.000000 62.727859,513.000000 1.045894,513.000000 
	C1.045894,342.448608 1.045894,171.897217 1.045894,1.000000 
	C62.353794,1.000000 123.708237,1.000000 185.531342,1.000000 
z"/>
<path fill="#f0f0f0" opacity="1.000000" stroke="none" 
	d="
M328.468658,513.000000 
	C329.529846,511.630554 331.035797,510.233215 332.594147,508.896973 
	C337.091278,505.040833 341.693420,501.302948 346.102966,497.349792 
	C357.197693,487.403320 368.209259,477.364075 379.457489,467.177917 
	C389.232605,475.876038 399.147705,484.328308 408.634644,493.236481 
	C419.871918,503.788239 431.815521,505.371582 443.975739,496.958252 
	C450.448273,492.480103 452.905487,485.576660 452.929657,478.093964 
	C453.072205,433.928345 453.000305,389.762024 453.000366,345.595947 
	C453.000458,243.263992 452.983307,140.932037 453.024475,38.600101 
	C453.029053,27.238171 449.313629,18.116625 438.152740,13.707265 
	C427.603180,9.539418 418.182434,12.078789 409.877411,19.595278 
	C399.826721,28.691668 389.695496,37.699062 379.892609,46.482029 
	C362.381439,31.471207 344.991974,16.564686 327.801270,1.329081 
	C389.636078,1.000000 451.272186,1.000000 512.954102,1.000000 
	C512.954102,171.551422 512.954102,342.102844 512.954102,513.000000 
	C451.646210,513.000000 390.291748,513.000000 328.468658,513.000000 
z"/>
<path fill="#f0f0f0" opacity="1.000000" stroke="none" 
	d="
M206.468658,513.000000 
	C208.940430,510.240479 211.827393,507.421143 214.833099,504.734680 
	C220.129608,500.000702 225.508896,495.359467 230.834778,490.658173 
	C238.625046,483.781433 246.452118,476.944824 254.149567,469.965424 
	C256.704132,467.649200 258.653290,468.312531 260.863708,470.337952 
	C272.098175,480.632202 283.319397,490.942413 294.670715,501.106964 
	C299.062439,505.039520 303.784607,508.603058 308.178101,512.667358 
	C274.312439,513.000000 240.624878,513.000000 206.468658,513.000000 
z"/>
<path fill="#f0f0f0" opacity="1.000000" stroke="none" 
	d="
M307.531342,0.999997 
	C304.700043,4.118864 301.486389,7.335602 298.082397,10.336411 
	C290.798004,16.757963 283.350159,22.994703 276.094696,29.448174 
	C270.913574,34.056568 265.919800,38.876625 260.876648,43.638477 
	C258.724213,45.670841 256.741486,46.417591 254.182953,44.048698 
	C250.454422,40.596497 246.448532,37.446011 242.618805,34.100586 
	C230.247604,23.293819 217.902863,12.456748 205.773956,1.315680 
	C239.687561,1.000000 273.375122,1.000000 307.531342,0.999997 
z"/>
<path fill="#f0f0f0" opacity="1.000000" stroke="none" 
	d="
M86.000183,171.000000 
	C86.000221,126.695831 86.000221,82.891655 86.000221,37.848278 
	C91.136925,42.115219 95.562447,45.653759 99.832405,49.370995 
	C106.059319,54.791855 112.169624,60.346546 118.338242,65.834503 
	C127.242775,73.756500 140.399185,74.426788 149.498657,66.868027 
	C158.507889,59.384232 167.100311,51.398487 175.870605,43.627308 
	C182.519012,37.736282 189.159653,31.836472 195.876846,25.875715 
	C203.382492,32.531158 210.704971,38.955650 217.949448,45.466930 
	C225.464355,52.221294 232.789261,59.191048 240.404510,65.828835 
	C250.420197,74.558937 264.806458,73.927231 274.563629,65.000107 
	C288.835052,51.942749 303.330231,39.129982 318.047394,25.928297 
	C323.798218,30.895321 329.689117,35.877560 335.461914,40.993114 
	C345.116241,49.548275 354.619690,58.274757 364.329132,66.766281 
	C372.353088,73.783760 386.303284,73.944618 394.401520,66.994347 
	C403.804230,58.924526 412.925781,50.527691 422.213470,42.322678 
	C423.758698,40.957573 425.528564,39.846714 427.733978,38.220699 
	C427.733978,184.334732 427.733978,329.663910 427.733978,476.064270 
	C421.895660,471.008728 416.714966,466.549133 411.564301,462.055084 
	C406.475250,457.614777 401.326324,453.237549 396.363098,448.659790 
	C385.543457,438.680481 370.945251,439.972382 358.921814,451.421021 
	C345.756744,463.956726 331.985382,475.855743 318.300110,488.192810 
	C314.166595,484.607819 310.159302,481.236328 306.267242,477.736694 
	C295.687103,468.223480 285.052246,458.767303 274.634308,449.078583 
	C264.357666,439.521332 249.372055,439.783997 238.980438,449.411346 
	C224.905701,462.450775 210.476089,475.107178 195.949234,488.151886 
	C189.354492,482.328247 182.821838,476.569855 176.300827,470.798309 
	C167.518951,463.025818 158.922272,455.031982 149.921524,447.522186 
	C140.238373,439.443085 127.448814,440.060150 117.991898,448.497955 
	C108.979599,456.539032 99.957588,464.569427 90.900513,472.559937 
	C89.694885,473.623596 88.257973,474.425110 86.000137,475.992096 
	C86.000137,373.886322 86.000137,272.693176 86.000183,171.000000 
M286.500000,316.000732 
	C241.512527,316.000732 196.525024,315.979523 151.537643,316.042755 
	C148.101135,316.047607 144.640503,316.486511 141.234619,317.008087 
	C134.053070,318.107819 130.266159,323.318817 131.013947,330.779266 
	C131.637924,337.004578 136.419540,340.998535 143.275467,340.998718 
	C219.087662,341.000732 294.899872,341.000732 370.712067,340.998779 
	C377.577972,340.998627 382.350708,337.022888 382.985748,330.796478 
	C383.745026,323.352295 379.938690,318.100952 372.782074,317.008606 
	C369.375824,316.488708 365.916016,316.055054 362.478943,316.044006 
	C337.486176,315.963531 312.493042,316.000732 286.500000,316.000732 
M226.500000,245.000000 
	C198.502029,245.000168 170.504059,244.990662 142.506088,245.007416 
	C135.551743,245.011566 130.994308,249.811066 131.001770,257.017151 
	C131.009232,264.216431 135.553177,268.982513 142.519043,268.991486 
	C160.351074,269.014496 178.183167,268.999969 196.015228,268.999939 
	C254.344421,268.999908 312.673767,269.048889 371.002319,268.855743 
	C373.957214,268.845978 377.631073,267.487396 379.698120,265.459930 
	C383.455139,261.774872 384.211334,256.837128 381.909119,251.743408 
	C379.669189,246.787567 376.022949,244.893372 370.489563,244.911301 
	C322.826782,245.065796 275.163269,245.000031 226.500000,245.000000 
M210.500000,172.999939 
	C188.007568,173.000076 165.511322,173.229065 143.025131,172.854462 
	C136.660858,172.748459 131.334137,178.414917 130.994278,183.561142 
	C130.511673,190.869492 134.225159,196.000137 141.073273,196.981583 
	C144.812531,197.517471 148.605759,197.947922 152.375687,197.956192 
	C186.030899,198.030121 219.686386,198.031693 253.341583,197.955719 
	C257.277740,197.946838 261.236877,197.515076 265.142578,196.971786 
	C271.984741,196.020050 275.585938,190.951675 274.990936,183.482513 
	C274.498047,177.294785 269.843597,173.016312 263.482544,173.008194 
	C246.155045,172.986069 228.827515,173.000183 210.500000,172.999939 
z"/>
<path fill="#6A6C76" opacity="1.000000" stroke="none" 
	d="
M287.000000,316.000732 
	C312.493042,316.000732 337.486176,315.963531 362.478943,316.044006 
	C365.916016,316.055054 369.375824,316.488708 372.782074,317.008606 
	C379.938690,318.100952 383.745026,323.352295 382.985748,330.796478 
	C382.350708,337.022888 377.577972,340.998627 370.712067,340.998779 
	C294.899872,341.000732 219.087662,341.000732 143.275467,340.998718 
	C136.419540,340.998535 131.637924,337.004578 131.013947,330.779266 
	C130.266159,323.318817 134.053070,318.107819 141.234619,317.008087 
	C144.640503,316.486511 148.101135,316.047607 151.537643,316.042755 
	C196.525024,315.979523 241.512527,316.000732 287.000000,316.000732 
z"/>
<path fill="#6A6C76" opacity="1.000000" stroke="none" 
	d="
M227.000000,245.000000 
	C275.163269,245.000031 322.826782,245.065796 370.489563,244.911301 
	C376.022949,244.893372 379.669189,246.787567 381.909119,251.743408 
	C384.211334,256.837128 383.455139,261.774872 379.698120,265.459930 
	C377.631073,267.487396 373.957214,268.845978 371.002319,268.855743 
	C312.673767,269.048889 254.344421,268.999908 196.015228,268.999939 
	C178.183167,268.999969 160.351074,269.014496 142.519043,268.991486 
	C135.553177,268.982513 131.009232,264.216431 131.001770,257.017151 
	C130.994308,249.811066 135.551743,245.011566 142.506088,245.007416 
	C170.504059,244.990662 198.502029,245.000168 227.000000,245.000000 
z"/>
<path fill="#6A6C76" opacity="1.000000" stroke="none" 
	d="
M211.000000,172.999939 
	C228.827515,173.000183 246.155045,172.986069 263.482544,173.008194 
	C269.843597,173.016312 274.498047,177.294785 274.990936,183.482513 
	C275.585938,190.951675 271.984741,196.020050 265.142578,196.971786 
	C261.236877,197.515076 257.277740,197.946838 253.341583,197.955719 
	C219.686386,198.031693 186.030899,198.030121 152.375687,197.956192 
	C148.605759,197.947922 144.812531,197.517471 141.073273,196.981583 
	C134.225159,196.000137 130.511673,190.869492 130.994278,183.561142 
	C131.334137,178.414917 136.660858,172.748459 143.025131,172.854462 
	C165.511322,173.229065 188.007568,173.000076 211.000000,172.999939 
z"/>
</svg>