<svg version="1.1" id="Layer_1" xmlns="http://www.w3.org/2000/svg" xmlns:xlink="http://www.w3.org/1999/xlink" x="0px" y="0px"
	 width="100%" viewBox="0 0 512 512" enable-background="new 0 0 512 512" xml:space="preserve">
<path fill="transparent" opacity="1.000000" stroke="none" 
	d="
M0.999999,240.000000 
	C1.000000,160.368271 1.000000,80.736549 1.000000,1.052409 
	C171.556870,1.052409 342.113770,1.052409 513.000000,1.052409 
	C513.000000,80.355042 513.000000,159.710541 512.656311,239.431061 
	C511.576691,238.170746 510.634308,236.606049 510.136414,234.910782 
	C504.574402,215.972733 492.754761,201.977692 476.139984,191.785339 
	C452.704926,177.409088 416.929230,178.484421 394.875427,194.808990 
	C368.740051,214.154770 358.609528,240.435013 364.238403,272.233856 
	C368.016663,293.578003 380.160583,309.774536 398.516541,321.350250 
	C412.427856,330.123047 427.670654,332.878387 443.830627,332.010773 
	C457.635956,331.269623 470.341797,326.953369 481.407928,318.925262 
	C495.594513,308.633331 505.898773,295.223358 510.574219,277.952789 
	C510.961792,276.521210 512.171997,275.312347 513.000000,274.000000 
	C513.000000,353.631744 513.000000,433.263458 513.000000,512.947632 
	C342.443146,512.947632 171.886246,512.947632 1.000000,512.947632 
	C1.000000,433.644958 1.000000,354.289459 1.343683,274.568909 
	C2.873643,277.258881 4.149000,280.282745 5.230893,283.374298 
	C10.111774,297.321686 18.978113,308.398956 30.486492,317.286346 
	C44.870213,328.394257 61.389008,332.721039 79.535522,332.075867 
	C104.937111,331.172852 124.772995,319.661591 138.697006,299.302216 
	C158.914688,269.740387 154.216736,227.091003 128.316208,202.400757 
	C106.138344,181.259247 70.413521,176.030548 43.926941,188.643066 
	C24.061464,198.102692 10.517253,213.409836 3.914774,234.624237 
	C3.320527,236.533600 1.989079,238.213516 0.999999,240.000000 
M288.939789,325.534851 
	C300.379913,320.599731 309.516357,312.559662 317.008301,302.951080 
	C328.017944,288.830902 332.566467,272.517059 332.102814,254.504089 
	C331.491058,230.738007 321.473053,211.856369 303.278015,197.304016 
	C290.022980,186.702637 274.590576,181.947052 257.423309,181.856308 
	C241.357727,181.771423 226.548859,185.625549 213.781815,194.990677 
	C187.705383,214.118698 177.821518,240.323929 183.152985,272.014984 
	C186.588013,292.433258 197.847916,308.625519 214.813049,319.751801 
	C237.797928,334.825989 262.747375,336.133331 288.939789,325.534851 
z"/>
<path fill="#2B2D41" opacity="1.000000" stroke="none" 
	d="
M0.999999,240.468658 
	C1.989079,238.213516 3.320527,236.533600 3.914774,234.624237 
	C10.517253,213.409836 24.061464,198.102692 43.926941,188.643066 
	C70.413521,176.030548 106.138344,181.259247 128.316208,202.400757 
	C154.216736,227.091003 158.914688,269.740387 138.697006,299.302216 
	C124.772995,319.661591 104.937111,331.172852 79.535522,332.075867 
	C61.389008,332.721039 44.870213,328.394257 30.486492,317.286346 
	C18.978113,308.398956 10.111774,297.321686 5.230893,283.374298 
	C4.149000,280.282745 2.873643,277.258881 1.343683,274.101929 
	C1.000000,262.979095 1.000000,251.958206 0.999999,240.468658 
M105.991180,289.508514 
	C115.565338,280.475830 119.743355,269.588654 120.105019,256.227173 
	C120.768692,231.708893 96.308868,207.430252 66.777306,213.585144 
	C46.742310,217.760803 30.637552,236.867493 31.878485,258.427948 
	C32.978077,277.532715 42.238937,290.927521 59.574635,298.024384 
	C76.161682,304.814728 91.769173,301.775665 105.991180,289.508514 
z"/>
<path fill="#2B2D41" opacity="1.000000" stroke="none" 
	d="
M513.000000,273.531342 
	C512.171997,275.312347 510.961792,276.521210 510.574219,277.952789 
	C505.898773,295.223358 495.594513,308.633331 481.407928,318.925262 
	C470.341797,326.953369 457.635956,331.269623 443.830627,332.010773 
	C427.670654,332.878387 412.427856,330.123047 398.516541,321.350250 
	C380.160583,309.774536 368.016663,293.578003 364.238403,272.233856 
	C358.609528,240.435013 368.740051,214.154770 394.875427,194.808990 
	C416.929230,178.484421 452.704926,177.409088 476.139984,191.785339 
	C492.754761,201.977692 504.574402,215.972733 510.136414,234.910782 
	C510.634308,236.606049 511.576691,238.170746 512.656311,239.898041 
	C513.000000,251.020889 513.000000,262.041779 513.000000,273.531342 
M471.007843,227.512924 
	C459.808197,215.154236 445.697906,210.500031 429.596741,213.460464 
	C405.934509,217.811096 390.872803,239.815094 394.121216,264.074219 
	C397.104431,286.352966 418.297668,302.936829 441.599579,301.018921 
	C459.989349,299.505341 472.878540,289.654541 479.281128,272.808044 
	C485.344238,256.854767 482.854584,241.431686 471.007843,227.512924 
z"/>
<path fill="#2B2D41" opacity="1.000000" stroke="none" 
	d="
M288.598602,325.704285 
	C262.747375,336.133331 237.797928,334.825989 214.813049,319.751801 
	C197.847916,308.625519 186.588013,292.433258 183.152985,272.014984 
	C177.821518,240.323929 187.705383,214.118698 213.781815,194.990677 
	C226.548859,185.625549 241.357727,181.771423 257.423309,181.856308 
	C274.590576,181.947052 290.022980,186.702637 303.278015,197.304016 
	C321.473053,211.856369 331.491058,230.738007 332.102814,254.504089 
	C332.566467,272.517059 328.017944,288.830902 317.008301,302.951080 
	C309.516357,312.559662 300.379913,320.599731 288.598602,325.704285 
M235.068558,218.491043 
	C216.846375,229.427246 209.900650,247.252838 213.721222,266.041748 
	C218.351532,288.812653 237.634552,302.685547 261.151093,300.993835 
	C285.379669,299.250854 306.038757,276.371826 300.309937,247.821457 
	C294.526031,218.996521 262.006439,203.672775 235.068558,218.491043 
z"/>
<path fill="transparent" opacity="1.000000" stroke="none" 
	d="
M105.739349,289.758606 
	C91.769173,301.775665 76.161682,304.814728 59.574635,298.024384 
	C42.238937,290.927521 32.978077,277.532715 31.878485,258.427948 
	C30.637552,236.867493 46.742310,217.760803 66.777306,213.585144 
	C96.308868,207.430252 120.768692,231.708893 120.105019,256.227173 
	C119.743355,269.588654 115.565338,280.475830 105.739349,289.758606 
z"/>
<path fill="transparent" opacity="1.000000" stroke="none" 
	d="
M471.259766,227.766403 
	C482.854584,241.431686 485.344238,256.854767 479.281128,272.808044 
	C472.878540,289.654541 459.989349,299.505341 441.599579,301.018921 
	C418.297668,302.936829 397.104431,286.352966 394.121216,264.074219 
	C390.872803,239.815094 405.934509,217.811096 429.596741,213.460464 
	C445.697906,210.500031 459.808197,215.154236 471.259766,227.766403 
z"/>
<path fill="transparent" opacity="1.000000" stroke="none" 
	d="
M235.397888,218.322083 
	C262.006439,203.672775 294.526031,218.996521 300.309937,247.821457 
	C306.038757,276.371826 285.379669,299.250854 261.151093,300.993835 
	C237.634552,302.685547 218.351532,288.812653 213.721222,266.041748 
	C209.900650,247.252838 216.846375,229.427246 235.397888,218.322083 
z"/>
</svg>