<svg version="1.1" id="Layer_1" xmlns="http://www.w3.org/2000/svg" xmlns:xlink="http://www.w3.org/1999/xlink" x="0px" y="0px"
	 width="100%" viewBox="0 0 512 512" enable-background="new 0 0 512 512" xml:space="preserve">
<path fill="#fff" opacity="1.000000" stroke="none" 
	d="
M285.000000,513.000000 
	C190.023056,513.000000 95.546112,513.000000 1.034582,513.000000 
	C1.034582,342.398041 1.034582,171.796051 1.034582,1.097036 
	C171.560287,1.097036 342.120667,1.097036 512.840515,1.097036 
	C512.840515,171.666550 512.840515,342.333252 512.840515,513.000000 
	C437.129364,513.000000 361.314667,513.000000 285.000000,513.000000 
M269.859955,464.665985 
	C270.143982,464.496979 270.411682,464.219971 270.714355,464.174255 
	C300.371674,459.693512 326.014679,436.633972 332.805542,407.656036 
	C334.374176,400.962250 335.810638,397.027069 344.279602,396.483978 
	C356.289581,395.713806 368.123138,392.263092 380.044250,390.022675 
	C416.152527,383.236603 437.826935,351.760071 432.727936,316.278107 
	C430.496918,300.753357 426.219666,285.510010 422.623993,270.197021 
	C417.194519,247.074310 411.869080,223.918854 405.878601,200.939148 
	C402.039490,186.212204 398.154633,171.334702 392.372986,157.315399 
	C384.063538,137.166824 371.144714,119.964722 354.342285,105.695343 
	C340.749207,94.151512 325.881073,84.856323 309.099884,79.097694 
	C297.555847,75.136246 285.503937,72.654663 273.722351,69.523155 
	C272.952667,65.640274 272.669159,60.775940 270.953949,56.483727 
	C269.086395,51.810284 264.877045,49.238983 259.600525,49.003559 
	C254.931717,48.795246 250.439529,48.894337 246.417282,52.027462 
	C240.114441,56.937077 241.032684,63.976547 240.870605,70.554207 
	C238.513687,71.100403 236.620575,71.700691 234.681778,71.962410 
	C221.243912,73.776352 208.480057,77.899673 196.177017,83.430054 
	C176.929352,92.082115 159.963715,104.244446 146.537750,120.377907 
	C137.576233,131.146622 129.810074,143.196808 123.215935,155.582291 
	C113.125374,174.534897 109.400154,195.832306 104.124237,216.432510 
	C97.492455,242.326859 91.980934,268.507660 85.949417,294.556396 
	C83.111732,306.811676 80.102242,318.905487 80.848663,331.791870 
	C82.312126,357.057404 100.076851,379.918457 123.590843,386.979218 
	C137.650162,391.200928 152.328400,393.656219 166.890076,395.815674 
	C178.272324,397.503632 178.031876,396.858765 181.122360,407.670746 
	C188.537125,433.611115 204.910309,451.416901 230.277603,461.021790 
	C242.907822,465.803986 255.946960,465.040192 269.859955,464.665985 
z"/>
<path fill="#2b2d41" opacity="1.000000" stroke="none" 
	d="
M269.425293,464.802612 
	C255.946960,465.040192 242.907822,465.803986 230.277603,461.021790 
	C204.910309,451.416901 188.537125,433.611115 181.122360,407.670746 
	C178.031876,396.858765 178.272324,397.503632 166.890076,395.815674 
	C152.328400,393.656219 137.650162,391.200928 123.590843,386.979218 
	C100.076851,379.918457 82.312126,357.057404 80.848663,331.791870 
	C80.102242,318.905487 83.111732,306.811676 85.949417,294.556396 
	C91.980934,268.507660 97.492455,242.326859 104.124237,216.432510 
	C109.400154,195.832306 113.125374,174.534897 123.215935,155.582291 
	C129.810074,143.196808 137.576233,131.146622 146.537750,120.377907 
	C159.963715,104.244446 176.929352,92.082115 196.177017,83.430054 
	C208.480057,77.899673 221.243912,73.776352 234.681778,71.962410 
	C236.620575,71.700691 238.513687,71.100403 240.870605,70.554207 
	C241.032684,63.976547 240.114441,56.937077 246.417282,52.027462 
	C250.439529,48.894337 254.931717,48.795246 259.600525,49.003559 
	C264.877045,49.238983 269.086395,51.810284 270.953949,56.483727 
	C272.669159,60.775940 272.952667,65.640274 273.722351,69.523155 
	C285.503937,72.654663 297.555847,75.136246 309.099884,79.097694 
	C325.881073,84.856323 340.749207,94.151512 354.342285,105.695343 
	C371.144714,119.964722 384.063538,137.166824 392.372986,157.315399 
	C398.154633,171.334702 402.039490,186.212204 405.878601,200.939148 
	C411.869080,223.918854 417.194519,247.074310 422.623993,270.197021 
	C426.219666,285.510010 430.496918,300.753357 432.727936,316.278107 
	C437.826935,351.760071 416.152527,383.236603 380.044250,390.022675 
	C368.123138,392.263092 356.289581,395.713806 344.279602,396.483978 
	C335.810638,397.027069 334.374176,400.962250 332.805542,407.656036 
	C326.014679,436.633972 300.371674,459.693512 270.714355,464.174255 
	C270.411682,464.219971 270.143982,464.496979 269.425293,464.802612 
M354.511688,156.063873 
	C349.415558,149.617081 344.862305,142.631088 339.108215,136.837753 
	C327.758728,125.410828 314.564362,116.463791 299.357819,110.731056 
	C279.519989,103.252373 259.279053,100.995766 238.251694,104.766006 
	C219.389297,108.148048 202.576370,115.801666 187.464905,127.301018 
	C170.534256,140.184692 157.449966,156.458908 150.278275,176.410828 
	C143.759445,194.546509 138.868973,213.317810 134.127441,232.028549 
	C128.897095,252.668289 124.582726,273.542542 120.011818,294.345947 
	C117.832634,304.264008 115.480293,314.185577 114.102829,324.228485 
	C112.048141,339.208923 122.591515,353.942139 137.760529,356.861328 
	C156.117126,360.393982 174.583191,363.540710 193.125504,365.870758 
	C209.628418,367.944489 226.287231,369.528870 242.900436,369.777222 
	C262.265533,370.066711 281.660980,368.789001 301.032806,367.950623 
	C309.602875,367.579712 318.218018,367.088287 326.688019,365.819489 
	C341.933899,363.535614 357.110413,360.756775 372.269653,357.936005 
	C385.582245,355.458893 395.107086,348.409332 399.132507,334.880920 
	C401.794922,325.933167 399.571594,317.212463 397.676056,308.714630 
	C391.075195,279.121918 384.289398,249.557648 376.794617,220.181396 
	C371.254181,198.465317 367.295135,176.089020 354.511688,156.063873 
M298.144257,401.957458 
	C270.218750,401.957458 242.293213,401.957458 213.064636,401.957458 
	C216.631622,407.598511 219.097580,412.904541 222.803543,417.120605 
	C240.713516,437.495911 273.260132,437.434998 291.367004,417.151031 
	C296.093689,411.856018 299.125671,405.837891 298.144257,401.957458 
z"/>
<path fill="#fff" opacity="1.000000" stroke="none" 
	d="
M354.708740,156.375809 
	C367.295135,176.089020 371.254181,198.465317 376.794617,220.181396 
	C384.289398,249.557648 391.075195,279.121918 397.676056,308.714630 
	C399.571594,317.212463 401.794922,325.933167 399.132507,334.880920 
	C395.107086,348.409332 385.582245,355.458893 372.269653,357.936005 
	C357.110413,360.756775 341.933899,363.535614 326.688019,365.819489 
	C318.218018,367.088287 309.602875,367.579712 301.032806,367.950623 
	C281.660980,368.789001 262.265533,370.066711 242.900436,369.777222 
	C226.287231,369.528870 209.628418,367.944489 193.125504,365.870758 
	C174.583191,363.540710 156.117126,360.393982 137.760529,356.861328 
	C122.591515,353.942139 112.048141,339.208923 114.102829,324.228485 
	C115.480293,314.185577 117.832634,304.264008 120.011818,294.345947 
	C124.582726,273.542542 128.897095,252.668289 134.127441,232.028549 
	C138.868973,213.317810 143.759445,194.546509 150.278275,176.410828 
	C157.449966,156.458908 170.534256,140.184692 187.464905,127.301018 
	C202.576370,115.801666 219.389297,108.148048 238.251694,104.766006 
	C259.279053,100.995766 279.519989,103.252373 299.357819,110.731056 
	C314.564362,116.463791 327.758728,125.410828 339.108215,136.837753 
	C344.862305,142.631088 349.415558,149.617081 354.708740,156.375809 
z"/>
<path fill="#fff" opacity="1.000000" stroke="none" 
	d="
M298.511230,401.895996 
	C299.125671,405.837891 296.093689,411.856018 291.367004,417.151031 
	C273.260132,437.434998 240.713516,437.495911 222.803543,417.120605 
	C219.097580,412.904541 216.631622,407.598511 213.064636,401.957458 
	C242.293213,401.957458 270.218750,401.957458 298.511230,401.895996 
z"/>
</svg>