<svg version="1.1" id="Layer_1" xmlns="http://www.w3.org/2000/svg" xmlns:xlink="http://www.w3.org/1999/xlink" x="0px" y="0px"
	 width="100%" viewBox="0 0 512 512" enable-background="new 0 0 512 512" xml:space="preserve">
<path fill="#fff" opacity="1.000000" stroke="none" 
	d="
M381.000000,0.999998 
	C424.975189,1.000000 468.950409,1.000000 512.962769,1.000000 
	C512.962769,171.545624 512.962769,342.091278 512.962769,513.000000 
	C469.313110,513.000000 425.625214,513.000000 381.342102,512.616150 
	C381.577637,511.818573 382.366058,511.235870 383.245270,511.015869 
	C403.751740,505.883514 420.151184,494.688721 432.093292,477.294006 
	C439.701843,466.211365 444.428497,454.031464 446.240753,440.467926 
	C448.059143,426.858398 446.727356,413.731506 442.402008,401.016357 
	C436.895081,384.827881 426.710754,371.728149 412.984131,361.510986 
	C393.082825,346.697784 370.655060,342.064270 346.530426,346.416534 
	C329.581543,349.474304 315.102844,357.838287 302.622772,369.724884 
	C301.699310,370.604462 299.221741,371.051300 298.208130,370.449799 
	C289.158844,365.079956 280.290375,359.406372 271.341827,353.865540 
	C250.956680,341.243347 230.561172,328.637817 210.160522,316.040710 
	C195.778275,307.159851 181.369873,298.321228 167.002594,289.416290 
	C165.082123,288.225952 163.898895,287.255463 164.723038,284.042206 
	C166.750580,276.137054 168.801178,267.930298 168.719223,259.866394 
	C168.606873,248.810501 166.531631,237.774551 165.205978,225.910080 
	C209.507034,198.460770 254.977173,170.287094 300.269531,142.223557 
	C304.674774,145.965393 308.464447,149.736038 312.780121,152.754593 
	C331.486816,165.838852 352.028656,171.462128 374.938416,168.087708 
	C399.175720,164.517746 418.074585,152.505066 432.017242,132.700119 
	C444.595673,114.833000 449.005402,94.953270 446.134460,73.176308 
	C443.648254,54.317543 435.582886,38.402470 422.433380,25.061556 
	C411.606995,14.077589 398.539337,6.651553 383.445099,2.962457 
	C382.525146,2.737616 381.810272,1.673571 381.000000,0.999998 
z"/>
<path fill="#2b2d41" opacity="1.000000" stroke="none" 
	d="
M380.531342,0.999998 
	C381.810272,1.673571 382.525146,2.737616 383.445099,2.962457 
	C398.539337,6.651553 411.606995,14.077589 422.433380,25.061556 
	C435.582886,38.402470 443.648254,54.317543 446.134460,73.176308 
	C449.005402,94.953270 444.595673,114.833000 432.017242,132.700119 
	C418.074585,152.505066 399.175720,164.517746 374.938416,168.087708 
	C352.028656,171.462128 331.486816,165.838852 312.780121,152.754593 
	C308.464447,149.736038 304.674774,145.965393 300.269531,142.223557 
	C254.977173,170.287094 209.507034,198.460770 165.205978,225.910080 
	C166.531631,237.774551 168.606873,248.810501 168.719223,259.866394 
	C168.801178,267.930298 166.750580,276.137054 164.723038,284.042206 
	C163.898895,287.255463 165.082123,288.225952 167.002594,289.416290 
	C181.369873,298.321228 195.778275,307.159851 210.160522,316.040710 
	C230.561172,328.637817 250.956680,341.243347 271.341827,353.865540 
	C280.290375,359.406372 289.158844,365.079956 298.208130,370.449799 
	C299.221741,371.051300 301.699310,370.604462 302.622772,369.724884 
	C315.102844,357.838287 329.581543,349.474304 346.530426,346.416534 
	C370.655060,342.064270 393.082825,346.697784 412.984131,361.510986 
	C426.710754,371.728149 436.895081,384.827881 442.402008,401.016357 
	C446.727356,413.731506 448.059143,426.858398 446.240753,440.467926 
	C444.428497,454.031464 439.701843,466.211365 432.093292,477.294006 
	C420.151184,494.688721 403.751740,505.883514 383.245270,511.015869 
	C382.366058,511.235870 381.577637,511.818573 380.873474,512.616150 
	C368.979095,513.000000 356.958221,513.000000 344.643555,512.628784 
	C344.014893,511.908813 343.733490,511.338959 343.337341,511.243073 
	C323.862183,506.527802 308.014801,496.246857 295.832947,480.338379 
	C278.015167,457.069702 275.036682,431.038391 282.484344,403.535248 
	C283.710480,399.007355 282.543518,397.982147 279.463348,396.090424 
	C255.819794,381.569672 232.249222,366.929962 208.665115,352.312469 
	C189.239685,340.272583 169.822830,328.218811 150.413315,316.153259 
	C148.081802,314.703918 146.391571,315.106720 144.309479,317.026245 
	C140.452530,320.582001 136.418381,324.049408 132.042557,326.920380 
	C113.500702,339.085754 93.227829,343.426453 71.227791,340.074677 
	C54.236336,337.485992 39.633030,330.163910 27.133013,318.582275 
	C14.850413,307.202026 6.763808,293.300171 2.927433,276.947571 
	C2.749560,276.189362 1.663229,275.644318 0.999999,275.000000 
	C1.000000,263.312439 1.000000,251.624878 1.384095,239.594818 
	C2.171323,238.587433 2.779796,237.970428 2.947631,237.250687 
	C7.426667,218.042740 17.511534,202.433456 33.106060,190.415939 
	C55.555206,173.116150 80.669128,169.027298 107.766418,175.963806 
	C121.936516,179.591156 133.884018,187.333649 144.711655,197.026535 
	C145.885880,198.077698 148.917801,198.544617 150.179611,197.781143 
	C166.499741,187.906464 182.641418,177.737366 198.855637,167.686966 
	C217.546097,156.101639 236.276489,144.580750 254.964569,132.991608 
	C264.707092,126.949913 274.395935,120.821693 284.055603,114.766060 
	C277.607727,98.734062 276.763519,82.345787 280.501221,66.585152 
	C288.274567,33.807774 309.225281,12.592769 341.685242,2.969249 
	C342.573364,2.705933 343.233521,1.673685 344.000000,1.000001 
	C356.020905,1.000000 368.041779,1.000000 380.531342,0.999998 
M39.976410,284.464905 
	C41.819134,286.979401 43.404209,289.741882 45.546722,291.967834 
	C58.698883,305.632233 74.503098,312.098663 93.601501,308.969482 
	C105.186661,307.071289 115.237961,301.595154 123.035133,293.169189 
	C133.431595,281.934265 138.372162,268.399414 137.109009,252.672546 
	C136.052582,239.519501 130.953705,228.163498 121.627617,219.462311 
	C109.401596,208.055527 94.844292,202.289505 77.405716,204.877975 
	C52.132828,208.629303 33.293427,229.697372 32.051830,255.178055 
	C31.551712,265.441650 34.501179,274.983002 39.976410,284.464905 
M415.096710,82.028252 
	C414.983459,79.539276 415.323486,76.926193 414.681671,74.581932 
	C411.119934,61.572670 405.081177,50.127361 393.651764,42.136135 
	C373.350403,27.941799 347.983124,28.033382 328.939240,44.866894 
	C311.001251,60.722813 305.332520,80.666389 313.876862,103.842293 
	C321.934448,125.697906 342.590851,137.158112 362.691223,137.651718 
	C373.901245,137.926987 384.732666,134.344833 393.872894,127.127357 
	C408.170258,115.837608 415.845398,101.323280 415.096710,82.028252 
M357.466919,377.000092 
	C345.940552,378.032288 335.520966,382.393677 327.438812,390.330811 
	C311.006989,406.467804 305.579010,425.580444 313.879150,447.988586 
	C321.129456,467.562317 340.965118,481.659515 362.200623,481.954315 
	C372.276489,482.094208 381.510864,479.142090 390.252472,473.982147 
	C409.520874,462.608612 418.605927,440.273041 414.703094,419.927612 
	C409.735748,394.032745 386.447205,374.081146 357.466919,377.000092 
z"/>
<path fill="#fff" opacity="1.000000" stroke="none" 
	d="
M0.999999,275.468658 
	C1.663229,275.644318 2.749560,276.189362 2.927433,276.947571 
	C6.763808,293.300171 14.850413,307.202026 27.133013,318.582275 
	C39.633030,330.163910 54.236336,337.485992 71.227791,340.074677 
	C93.227829,343.426453 113.500702,339.085754 132.042557,326.920380 
	C136.418381,324.049408 140.452530,320.582001 144.309479,317.026245 
	C146.391571,315.106720 148.081802,314.703918 150.413315,316.153259 
	C169.822830,328.218811 189.239685,340.272583 208.665115,352.312469 
	C232.249222,366.929962 255.819794,381.569672 279.463348,396.090424 
	C282.543518,397.982147 283.710480,399.007355 282.484344,403.535248 
	C275.036682,431.038391 278.015167,457.069702 295.832947,480.338379 
	C308.014801,496.246857 323.862183,506.527802 343.337341,511.243073 
	C343.733490,511.338959 344.014893,511.908813 344.174896,512.628784 
	C229.752792,513.000000 115.505569,513.000000 1.000000,513.000000 
	C1.000000,433.979279 1.000000,354.958313 0.999999,275.468658 
z"/>
<path fill="#fff" opacity="1.000000" stroke="none" 
	d="
M343.531342,1.000001 
	C343.233521,1.673685 342.573364,2.705933 341.685242,2.969249 
	C309.225281,12.592769 288.274567,33.807774 280.501221,66.585152 
	C276.763519,82.345787 277.607727,98.734062 284.055603,114.766060 
	C274.395935,120.821693 264.707092,126.949913 254.964569,132.991608 
	C236.276489,144.580750 217.546097,156.101639 198.855637,167.686966 
	C182.641418,177.737366 166.499741,187.906464 150.179611,197.781143 
	C148.917801,198.544617 145.885880,198.077698 144.711655,197.026535 
	C133.884018,187.333649 121.936516,179.591156 107.766418,175.963806 
	C80.669128,169.027298 55.555206,173.116150 33.106060,190.415939 
	C17.511534,202.433456 7.426667,218.042740 2.947631,237.250687 
	C2.779796,237.970428 2.171323,238.587433 1.384095,239.126160 
	C1.000000,159.726425 1.000000,80.452843 1.000000,1.000000 
	C115.020828,1.000000 229.041763,1.000000 343.531342,1.000001 
z"/>
<path fill="#fff" opacity="1.000000" stroke="none" 
	d="
M39.725143,284.191895 
	C34.501179,274.983002 31.551712,265.441650 32.051830,255.178055 
	C33.293427,229.697372 52.132828,208.629303 77.405716,204.877975 
	C94.844292,202.289505 109.401596,208.055527 121.627617,219.462311 
	C130.953705,228.163498 136.052582,239.519501 137.109009,252.672546 
	C138.372162,268.399414 133.431595,281.934265 123.035133,293.169189 
	C115.237961,301.595154 105.186661,307.071289 93.601501,308.969482 
	C74.503098,312.098663 58.698883,305.632233 45.546722,291.967834 
	C43.404209,289.741882 41.819134,286.979401 39.725143,284.191895 
z"/>
<path fill="#fff" opacity="1.000000" stroke="none" 
	d="
M415.243530,82.444077 
	C415.845398,101.323280 408.170258,115.837608 393.872894,127.127357 
	C384.732666,134.344833 373.901245,137.926987 362.691223,137.651718 
	C342.590851,137.158112 321.934448,125.697906 313.876862,103.842293 
	C305.332520,80.666389 311.001251,60.722813 328.939240,44.866894 
	C347.983124,28.033382 373.350403,27.941799 393.651764,42.136135 
	C405.081177,50.127361 411.119934,61.572670 414.681671,74.581932 
	C415.323486,76.926193 414.983459,79.539276 415.243530,82.444077 
z"/>
<path fill="#fff" opacity="1.000000" stroke="none" 
	d="
M357.906586,376.999573 
	C386.447205,374.081146 409.735748,394.032745 414.703094,419.927612 
	C418.605927,440.273041 409.520874,462.608612 390.252472,473.982147 
	C381.510864,479.142090 372.276489,482.094208 362.200623,481.954315 
	C340.965118,481.659515 321.129456,467.562317 313.879150,447.988586 
	C305.579010,425.580444 311.006989,406.467804 327.438812,390.330811 
	C335.520966,382.393677 345.940552,378.032288 357.906586,376.999573 
z"/>
</svg>