<svg version="1.1" id="Layer_1" xmlns="http://www.w3.org/2000/svg" xmlns:xlink="http://www.w3.org/1999/xlink" x="0px" y="0px"
	 width="100%" viewBox="0 0 512 512" enable-background="new 0 0 512 512" xml:space="preserve">
<path  id="my-svg" fill="#4EB39B" opacity="1.000000" stroke="none" 
	d="
M145.056976,101.970131 
	C148.467255,101.682533 151.448074,101.228065 154.429138,101.226303 
	C222.744080,101.186066 291.059052,101.180908 359.373993,101.203041 
	C382.310822,101.210472 398.596771,113.842255 404.366699,136.147705 
	C408.281525,151.281616 412.173828,166.424500 415.797028,181.629898 
	C420.105103,199.709641 416.537506,216.223663 405.535645,231.266479 
	C403.922150,233.472549 402.878082,236.652939 402.865967,239.388275 
	C402.695374,277.879120 402.815338,316.371155 402.725616,354.862549 
	C402.666321,380.307800 388.708282,401.005737 365.512451,409.205505 
	C359.204346,411.435486 352.191101,412.622650 345.494293,412.652191 
	C286.511688,412.912628 227.527252,412.894867 168.543762,412.767120 
	C135.888031,412.696411 111.442642,388.196930 111.292824,355.405151 
	C111.117737,317.080963 111.205963,278.755249 111.318443,240.430573 
	C111.329773,236.568954 110.387672,233.526871 108.048897,230.383362 
	C97.166100,215.755890 93.930008,199.386398 98.183380,181.682663 
	C101.873718,166.322479 105.844452,151.029221 109.745438,135.720200 
	C114.433029,117.324272 126.111221,106.120110 145.056976,101.970131 
M133.899734,345.498352 
	C133.907684,349.496857 133.852615,353.496674 133.934418,357.493683 
	C134.301147,375.412354 148.524033,389.743561 166.449387,390.090240 
	C175.942963,390.273834 185.442719,390.137787 194.939682,390.145386 
	C196.856400,390.146912 198.773102,390.145599 200.993912,390.145599 
	C200.993912,387.573761 200.991821,385.762573 200.994247,383.951355 
	C201.017685,366.457184 200.708694,348.954773 201.139511,331.470612 
	C201.891876,300.935211 230.462891,275.660828 260.727570,278.326385 
	C290.941711,280.987488 312.800659,304.609039 312.986511,334.935577 
	C313.087555,351.429749 313.005524,367.925110 313.006042,384.419922 
	C313.006104,386.194092 313.006073,387.968262 313.006073,390.145111 
	C323.758179,390.145111 333.889740,390.157715 344.021210,390.142548 
	C366.443115,390.109009 380.077637,376.478363 380.093628,354.025269 
	C380.117004,321.202240 380.100006,288.379181 380.100189,255.556152 
	C380.100220,253.907333 380.100189,252.258514 380.100189,250.552872 
	C345.891571,256.180206 335.328979,252.948135 313.521545,230.570480 
	C307.916382,235.246964 302.699097,240.423477 296.705414,244.441925 
	C280.449127,255.340866 261.945496,254.506531 243.581421,253.377533 
	C231.251434,252.619522 220.295059,247.856476 210.857285,239.985138 
	C207.244034,236.971619 204.362015,233.081329 201.161346,229.606430 
	C182.776016,251.653793 160.707123,258.268738 133.899643,250.294861 
	C133.899643,281.893097 133.899643,313.196075 133.899734,345.498352 
M238.165222,229.692596 
	C246.948074,230.173218 255.725525,230.882111 264.514832,231.089737 
	C286.887268,231.618271 302.938873,212.360977 302.358215,193.143845 
	C301.709534,171.675934 302.240356,150.172562 302.236786,128.684616 
	C302.236542,127.238525 302.058929,125.792465 301.957153,124.245270 
	C271.755554,124.245270 241.892227,124.245270 211.916931,124.245270 
	C211.821030,125.776245 211.686691,126.926086 211.686188,128.075989 
	C211.676636,149.897079 211.600281,171.718597 211.711990,193.539124 
	C211.801498,211.025238 220.905365,223.568146 238.165222,229.692596 
M188.895493,170.500000 
	C188.895493,155.080505 188.895493,139.661011 188.895493,123.997597 
	C175.253922,123.997597 162.261490,123.421906 149.350433,124.198830 
	C140.659576,124.721817 134.486160,130.426102 132.211700,138.831436 
	C127.570038,155.984726 123.061600,173.204361 119.420876,190.589874 
	C115.596397,208.852890 129.261368,227.156235 148.383820,230.712708 
	C166.514069,234.084656 185.206772,221.736313 187.909012,203.355316 
	C189.443985,192.914200 188.643906,182.129807 188.895493,170.500000 
M325.015106,150.500000 
	C325.025024,166.151825 324.772827,181.809311 325.109833,197.454086 
	C325.551971,217.978409 343.636932,233.293671 364.135284,230.938339 
	C384.174316,228.635818 398.683502,208.801712 394.250610,189.107361 
	C390.528473,172.570480 386.267792,156.151382 382.040131,139.733017 
	C379.522186,129.954407 371.676147,123.976929 361.597443,123.883270 
	C350.608765,123.781143 339.618347,123.845436 328.628815,123.873680 
	C327.531311,123.876495 326.434509,124.132248 325.015137,124.311249 
	C325.015137,132.898315 325.015137,141.199158 325.015106,150.500000 
M223.262222,361.500000 
	C223.262222,370.929596 223.262222,380.359192 223.262222,389.862488 
	C246.041351,389.862488 268.105255,389.862488 290.205200,389.862488 
	C290.205200,369.828705 290.940094,350.046021 289.982849,330.345551 
	C289.151306,313.232208 274.215820,300.806244 256.871063,300.839050 
	C239.788498,300.871368 225.373840,313.298584 223.938461,330.088623 
	C223.076492,340.171326 223.446320,350.359314 223.262222,361.500000 
z"/>

</svg>