<svg version="1.1" id="Layer_1" xmlns="http://www.w3.org/2000/svg" xmlns:xlink="http://www.w3.org/1999/xlink" x="0px" y="0px"
	 width="100%" viewBox="0 0 512 512" enable-background="new 0 0 512 512" xml:space="preserve">
<path fill="#6A6C76" opacity="1.000000" stroke="none" 
	d="
M289.000000,513.000000 
	C267.979095,513.000000 246.958206,513.000000 225.560867,512.588684 
	C224.344727,511.790558 223.540970,511.211395 222.659760,511.046692 
	C213.960526,509.420532 205.169067,508.207092 196.555283,506.219818 
	C173.542648,500.910645 151.818802,492.147797 131.239120,480.611694 
	C114.378288,471.160248 98.626373,460.008514 84.549545,446.806732 
	C75.030579,437.879486 66.390381,427.974335 57.750824,418.159973 
	C45.185390,403.885925 35.408550,387.670898 27.022768,370.704865 
	C15.545064,347.483276 7.406179,323.122040 3.851821,297.334656 
	C3.458308,294.479645 1.976879,291.774597 1.000001,289.000000 
	C1.000000,267.979095 1.000000,246.958206 1.411323,225.560974 
	C2.209476,224.344940 2.788824,223.541168 2.953315,222.659973 
	C4.576196,213.965942 5.799702,205.183533 7.767519,196.570358 
	C13.067398,173.372742 21.913645,151.514175 33.630283,130.824982 
	C43.482944,113.427208 54.827328,96.983566 68.936981,82.841545 
	C80.355370,71.396957 92.552536,60.614586 105.202698,50.541145 
	C123.305656,36.125591 143.789032,25.592901 165.378662,17.340508 
	C183.987930,10.227317 203.134979,5.104870 223.002396,2.900887 
	C223.729599,2.820214 224.336838,1.658114 225.000000,0.999997 
	C246.020889,1.000000 267.041779,1.000000 288.438171,1.411259 
	C289.486755,2.203779 290.122131,2.811607 290.838837,2.930901 
	C297.310242,4.008088 303.847168,4.748529 310.268372,6.060349 
	C336.563446,11.432324 361.349579,20.992262 384.547394,34.368748 
	C410.054382,49.076740 432.477997,67.640999 451.644531,90.099037 
	C467.095825,108.203796 479.939056,127.917252 489.919861,149.549423 
	C500.728851,172.976471 507.948853,197.384415 511.097321,223.002731 
	C511.187347,223.735382 512.341858,224.337189 513.000000,225.000000 
	C513.000000,246.020889 513.000000,267.041779 512.588501,288.439850 
	C511.790375,289.656830 511.206024,290.461121 511.047821,291.341949 
	C509.511566,299.894104 508.523010,308.575287 506.468536,316.997742 
	C501.166931,338.731720 493.287781,359.484161 482.483337,379.176819 
	C467.630280,406.248718 448.660339,429.819458 425.458466,450.204773 
	C409.387085,464.325134 391.939240,476.326477 372.916321,485.879364 
	C349.192657,497.792786 324.301544,506.451294 297.832916,510.104645 
	C294.812927,510.521454 291.940704,512.008911 289.000000,513.000000 
M309.336731,196.999405 
	C272.749969,196.999405 236.163177,196.999405 199.241348,196.999405 
	C195.993790,237.180786 195.980301,276.809540 199.226852,316.637512 
	C237.917511,316.637512 276.263611,316.637512 314.800842,316.637512 
	C317.995300,276.751770 318.019073,237.229813 314.774261,197.337723 
	C313.178802,197.217422 311.737366,197.108734 309.336731,196.999405 
M159.000137,249.500259 
	C159.622879,232.186722 160.245621,214.873169 160.878036,197.290497 
	C159.473495,197.170395 158.513412,197.016907 157.553284,197.016541 
	C121.922173,197.002747 86.290672,197.080231 50.660461,196.900421 
	C46.380161,196.878815 45.744251,199.448624 45.085224,202.326599 
	C39.920956,224.879074 36.095375,247.590134 39.045406,270.826721 
	C40.779121,284.482727 43.055695,298.069397 45.047955,311.693146 
	C45.663078,315.899597 47.889935,317.127472 52.170959,317.104401 
	C86.635574,316.918884 121.101631,317.003723 155.567245,316.990143 
	C157.189590,316.989502 158.811874,316.839050 160.999390,316.730225 
	C160.999390,314.670380 161.092560,312.884308 160.984055,311.110596 
	C160.348892,300.729034 159.421326,290.358673 159.071152,279.968384 
	C158.740479,270.155975 159.000198,260.323700 159.000137,249.500259 
M367.506775,196.999237 
	C362.755219,196.999237 358.003632,196.999237 353.999939,196.999237 
	C353.999939,237.488266 353.999939,277.125092 353.999939,316.816223 
	C354.562195,316.867249 355.222900,316.979492 355.883667,316.979706 
	C391.680603,316.992004 427.477905,316.916351 463.273895,317.102936 
	C467.521790,317.125092 468.267731,314.634308 468.902893,311.738098 
	C473.851776,289.171875 478.056305,266.506531 474.969208,243.250687 
	C473.157654,229.603928 470.965271,216.007782 468.953674,202.387436 
	C468.349213,198.294342 466.291901,196.855057 461.909180,196.885239 
	C430.775665,197.099640 399.639923,196.999313 367.506775,196.999237 
M267.985992,469.518890 
	C277.549225,460.630585 282.787994,449.022552 288.017151,437.443207 
	C296.437439,418.797485 301.274231,399.025726 305.809601,379.193787 
	C307.587311,371.420410 308.669403,363.487946 310.125580,355.306183 
	C274.481293,355.306183 239.406403,355.306183 204.337814,355.306183 
	C204.215027,356.093262 204.002090,356.605194 204.082336,357.066010 
	C208.479370,382.315216 213.776520,407.386475 223.282608,431.253479 
	C228.878738,445.303650 235.094528,459.220612 246.446304,470.007690 
	C254.443863,477.607361 259.489227,477.755035 267.985992,469.518890 
M300.975616,114.594040 
	C297.658447,104.290726 294.836975,93.793785 290.906250,83.730110 
	C285.209229,69.144234 278.962280,54.756996 267.201599,43.642578 
	C259.680481,36.534782 254.352646,36.518330 246.853104,43.585926 
	C235.075043,54.685574 228.257034,68.904312 223.223770,83.686142 
	C216.950943,102.108391 212.249649,121.077095 207.205688,139.899857 
	C205.584412,145.950058 205.027527,152.285461 203.964722,158.603149 
	C239.688202,158.603149 274.712555,158.603149 310.681000,158.603149 
	C307.375397,143.830322 304.197906,129.630081 300.975616,114.594040 
M97.522621,107.998810 
	C82.844055,122.794975 71.457504,139.867767 61.764126,158.666718 
	C96.904465,158.666718 131.297729,158.666718 165.737228,158.666718 
	C171.804001,120.076813 180.257080,82.482414 197.723236,47.303261 
	C196.698425,47.167896 196.185547,46.977573 195.727081,47.066830 
	C194.936874,47.220669 194.188141,47.574917 193.408844,47.799355 
	C174.964767,53.111340 157.644241,61.035500 141.516190,71.321198 
	C125.532776,81.514656 110.485214,92.991676 97.522621,107.998810 
M148.498108,355.000854 
	C119.792900,355.000854 91.087685,355.000854 61.592548,355.000854 
	C75.883125,383.001831 94.543709,406.207062 118.055038,425.570831 
	C141.567078,444.935272 167.686234,459.201935 198.189484,467.511414 
	C180.203247,431.351501 171.747314,393.706879 165.676086,355.000854 
	C160.093231,355.000854 154.795120,355.000854 148.498108,355.000854 
M335.479858,97.972923 
	C340.056061,118.201767 344.632294,138.430603 349.225067,158.732697 
	C383.120209,158.732697 417.338623,158.732697 452.287598,158.732697 
	C434.810547,124.616890 410.565826,97.306862 379.483276,76.003494 
	C360.210754,62.794468 339.450378,52.811729 316.167847,46.620949 
	C318.749573,52.486225 321.213562,57.338326 323.054077,62.416397 
	C327.238922,73.962639 331.117493,85.619888 335.479858,97.972923 
M398.339233,423.902405 
	C420.317902,404.415466 438.794067,382.201813 452.226685,355.273987 
	C417.201263,355.273987 382.844238,355.273987 348.272522,355.273987 
	C342.242828,393.843658 333.765808,431.499481 315.756287,467.631805 
	C346.880157,458.684784 373.894470,444.492645 398.339233,423.902405 
z"/>
<path fill="#f0f0f0" opacity="1.000000" stroke="none" 
	d="
M1.000001,289.468658 
	C1.976879,291.774597 3.458308,294.479645 3.851821,297.334656 
	C7.406179,323.122040 15.545064,347.483276 27.022768,370.704865 
	C35.408550,387.670898 45.185390,403.885925 57.750824,418.159973 
	C66.390381,427.974335 75.030579,437.879486 84.549545,446.806732 
	C98.626373,460.008514 114.378288,471.160248 131.239120,480.611694 
	C151.818802,492.147797 173.542648,500.910645 196.555283,506.219818 
	C205.169067,508.207092 213.960526,509.420532 222.659760,511.046692 
	C223.540970,511.211395 224.344727,511.790558 225.092209,512.588684 
	C150.406296,513.000000 75.812599,513.000000 1.000000,513.000000 
	C1.000000,438.645905 1.000000,364.291626 1.000001,289.468658 
z"/>
<path fill="#f0f0f0" opacity="1.000000" stroke="none" 
	d="
M289.468658,513.000000 
	C291.940704,512.008911 294.812927,510.521454 297.832916,510.104645 
	C324.301544,506.451294 349.192657,497.792786 372.916321,485.879364 
	C391.939240,476.326477 409.387085,464.325134 425.458466,450.204773 
	C448.660339,429.819458 467.630280,406.248718 482.483337,379.176819 
	C493.287781,359.484161 501.166931,338.731720 506.468536,316.997742 
	C508.523010,308.575287 509.511566,299.894104 511.047821,291.341949 
	C511.206024,290.461121 511.790375,289.656830 512.588501,288.908508 
	C513.000000,363.593719 513.000000,438.187408 513.000000,513.000000 
	C438.645905,513.000000 364.291626,513.000000 289.468658,513.000000 
z"/>
<path fill="#f0f0f0" opacity="1.000000" stroke="none" 
	d="
M224.531342,0.999997 
	C224.336838,1.658114 223.729599,2.820214 223.002396,2.900887 
	C203.134979,5.104870 183.987930,10.227317 165.378662,17.340508 
	C143.789032,25.592901 123.305656,36.125591 105.202698,50.541145 
	C92.552536,60.614586 80.355370,71.396957 68.936981,82.841545 
	C54.827328,96.983566 43.482944,113.427208 33.630283,130.824982 
	C21.913645,151.514175 13.067398,173.372742 7.767519,196.570358 
	C5.799702,205.183533 4.576196,213.965942 2.953315,222.659973 
	C2.788824,223.541168 2.209476,224.344940 1.411323,225.092316 
	C1.000000,150.406296 1.000000,75.812576 1.000000,1.000000 
	C75.354088,1.000000 149.708389,1.000000 224.531342,0.999997 
z"/>
<path fill="#f0f0f0" opacity="1.000000" stroke="none" 
	d="
M513.000000,224.531342 
	C512.341858,224.337189 511.187347,223.735382 511.097321,223.002731 
	C507.948853,197.384415 500.728851,172.976471 489.919861,149.549423 
	C479.939056,127.917252 467.095825,108.203796 451.644531,90.099037 
	C432.477997,67.640999 410.054382,49.076740 384.547394,34.368748 
	C361.349579,20.992262 336.563446,11.432324 310.268372,6.060349 
	C303.847168,4.748529 297.310242,4.008088 290.838837,2.930901 
	C290.122131,2.811607 289.486755,2.203779 288.906830,1.411259 
	C363.593719,1.000000 438.187408,1.000000 513.000000,1.000000 
	C513.000000,75.354088 513.000000,149.708389 513.000000,224.531342 
z"/>
<path fill="#f0f0f0" opacity="1.000000" stroke="none" 
	d="
M309.816315,196.999725 
	C311.737366,197.108734 313.178802,197.217422 314.774261,197.337723 
	C318.019073,237.229813 317.995300,276.751770 314.800842,316.637512 
	C276.263611,316.637512 237.917511,316.637512 199.226852,316.637512 
	C195.980301,276.809540 195.993790,237.180786 199.241348,196.999405 
	C236.163177,196.999405 272.749969,196.999405 309.816315,196.999725 
z"/>
<path fill="#f0f0f0" opacity="1.000000" stroke="none" 
	d="
M159.000183,250.000214 
	C159.000198,260.323700 158.740479,270.155975 159.071152,279.968384 
	C159.421326,290.358673 160.348892,300.729034 160.984055,311.110596 
	C161.092560,312.884308 160.999390,314.670380 160.999390,316.730225 
	C158.811874,316.839050 157.189590,316.989502 155.567245,316.990143 
	C121.101631,317.003723 86.635574,316.918884 52.170959,317.104401 
	C47.889935,317.127472 45.663078,315.899597 45.047955,311.693146 
	C43.055695,298.069397 40.779121,284.482727 39.045406,270.826721 
	C36.095375,247.590134 39.920956,224.879074 45.085224,202.326599 
	C45.744251,199.448624 46.380161,196.878815 50.660461,196.900421 
	C86.290672,197.080231 121.922173,197.002747 157.553284,197.016541 
	C158.513412,197.016907 159.473495,197.170395 160.878036,197.290497 
	C160.245621,214.873169 159.622879,232.186722 159.000183,250.000214 
z"/>
<path fill="#f0f0f0" opacity="1.000000" stroke="none" 
	d="
M368.005859,196.999237 
	C399.639923,196.999313 430.775665,197.099640 461.909180,196.885239 
	C466.291901,196.855057 468.349213,198.294342 468.953674,202.387436 
	C470.965271,216.007782 473.157654,229.603928 474.969208,243.250687 
	C478.056305,266.506531 473.851776,289.171875 468.902893,311.738098 
	C468.267731,314.634308 467.521790,317.125092 463.273895,317.102936 
	C427.477905,316.916351 391.680603,316.992004 355.883667,316.979706 
	C355.222900,316.979492 354.562195,316.867249 353.999939,316.816223 
	C353.999939,277.125092 353.999939,237.488266 353.999939,196.999237 
	C358.003632,196.999237 362.755219,196.999237 368.005859,196.999237 
z"/>
<path fill="#f0f0f0" opacity="1.000000" stroke="none" 
	d="
M267.731018,469.769379 
	C259.489227,477.755035 254.443863,477.607361 246.446304,470.007690 
	C235.094528,459.220612 228.878738,445.303650 223.282608,431.253479 
	C213.776520,407.386475 208.479370,382.315216 204.082336,357.066010 
	C204.002090,356.605194 204.215027,356.093262 204.337814,355.306183 
	C239.406403,355.306183 274.481293,355.306183 310.125580,355.306183 
	C308.669403,363.487946 307.587311,371.420410 305.809601,379.193787 
	C301.274231,399.025726 296.437439,418.797485 288.017151,437.443207 
	C282.787994,449.022552 277.549225,460.630585 267.731018,469.769379 
z"/>
<path fill="#f0f0f0" opacity="1.000000" stroke="none" 
	d="
M300.998016,115.011932 
	C304.197906,129.630081 307.375397,143.830322 310.681000,158.603149 
	C274.712555,158.603149 239.688202,158.603149 203.964722,158.603149 
	C205.027527,152.285461 205.584412,145.950058 207.205688,139.899857 
	C212.249649,121.077095 216.950943,102.108391 223.223770,83.686142 
	C228.257034,68.904312 235.075043,54.685574 246.853104,43.585926 
	C254.352646,36.518330 259.680481,36.534782 267.201599,43.642578 
	C278.962280,54.756996 285.209229,69.144234 290.906250,83.730110 
	C294.836975,93.793785 297.658447,104.290726 300.998016,115.011932 
z"/>
<path fill="#f0f0f0" opacity="1.000000" stroke="none" 
	d="
M97.771278,107.745285 
	C110.485214,92.991676 125.532776,81.514656 141.516190,71.321198 
	C157.644241,61.035500 174.964767,53.111340 193.408844,47.799355 
	C194.188141,47.574917 194.936874,47.220669 195.727081,47.066830 
	C196.185547,46.977573 196.698425,47.167896 197.723236,47.303261 
	C180.257080,82.482414 171.804001,120.076813 165.737228,158.666718 
	C131.297729,158.666718 96.904465,158.666718 61.764126,158.666718 
	C71.457504,139.867767 82.844055,122.794975 97.771278,107.745285 
z"/>
<path fill="#f0f0f0" opacity="1.000000" stroke="none" 
	d="
M148.997559,355.000854 
	C154.795120,355.000854 160.093231,355.000854 165.676086,355.000854 
	C171.747314,393.706879 180.203247,431.351501 198.189484,467.511414 
	C167.686234,459.201935 141.567078,444.935272 118.055038,425.570831 
	C94.543709,406.207062 75.883125,383.001831 61.592548,355.000854 
	C91.087685,355.000854 119.792900,355.000854 148.997559,355.000854 
z"/>
<path fill="#f0f0f0" opacity="1.000000" stroke="none" 
	d="
M335.300171,97.602478 
	C331.117493,85.619888 327.238922,73.962639 323.054077,62.416397 
	C321.213562,57.338326 318.749573,52.486225 316.167847,46.620949 
	C339.450378,52.811729 360.210754,62.794468 379.483276,76.003494 
	C410.565826,97.306862 434.810547,124.616890 452.287598,158.732697 
	C417.338623,158.732697 383.120209,158.732697 349.225067,158.732697 
	C344.632294,138.430603 340.056061,118.201767 335.300171,97.602478 
z"/>
<path fill="#f0f0f0" opacity="1.000000" stroke="none" 
	d="
M397.994141,423.998230 
	C373.894470,444.492645 346.880157,458.684784 315.756287,467.631805 
	C333.765808,431.499481 342.242828,393.843658 348.272522,355.273987 
	C382.844238,355.273987 417.201263,355.273987 452.226685,355.273987 
	C438.794067,382.201813 420.317902,404.415466 397.994141,423.998230 
z"/>
</svg>